<?xml version="1.0" standalone="no"?>
<!DOCTYPE svg PUBLIC "-//W3C//DTD SVG 1.1//EN" "http://www.w3.org/Graphics/SVG/1.1/DTD/svg11.dtd" >
<svg xmlns="http://www.w3.org/2000/svg">
<metadata>Generated by IcoMoon</metadata>
<defs>
<font id="gsicons" horiz-adv-x="1024">
<font-face units-per-em="1024" ascent="960" descent="-64" />
<missing-glyph horiz-adv-x="1024" />
<glyph unicode="&#x20;" horiz-adv-x="512" d="" />
<glyph unicode="&#xe900;" glyph-name="abandoned_cart" d="M326.603 234.667c-25.472 0-47.509 18.155-52.373 43.157l-12.384 63.509h545.45c40.853 0 75.968 28.949 83.776 69.056l46.4 238.741c7.68 39.488-22.571 76.203-62.827 76.203h-74.645c-17.664 0-32-14.336-32-32s14.336-32 32-32h74.645l-46.4-238.72c-1.963-10.048-10.731-17.28-20.949-17.28h-557.929l-49.917 256h67.215c17.664 0 32 14.336 32 32s-14.336 32-32 32h-79.695l-17.338 88.917c-6.827 35.008-37.632 60.416-73.301 60.416h-64.342c-17.664 0-32-14.336-32-32s14.336-32 32-32h64.32c5.12 0 9.515-3.627 10.496-8.64l104.619-536.427c10.688-55.019 59.115-94.933 115.179-94.933h473.388c17.685 0 32 14.336 32 32s-14.315 32-32 32h-473.388zM319.998-21.333c35.349 0 64 28.651 64 64s-28.651 64-64 64c-35.349 0-64-28.651-64-64s28.651-64 64-64zM746.667-21.333c35.349 0 64 28.651 64 64s-28.651 64-64 64c-35.349 0-64-28.651-64-64s28.651-64 64-64zM628.075 833.344c6.208 6.208 14.421 9.323 22.635 9.323s16.405-3.115 22.635-9.323c12.459-12.459 12.459-32.832 0-45.269l-94.763-94.741 94.763-94.741c12.459-12.437 12.459-32.811 0-45.269-6.229-6.208-14.421-9.323-22.635-9.323s-16.427 3.115-22.635 9.323l-94.741 94.763-94.741-94.763c-6.208-6.208-14.423-9.323-22.636-9.323s-16.384 3.115-22.613 9.323c-12.459 12.459-12.459 32.832 0 45.269l94.743 94.741-94.743 94.741c-12.459 12.437-12.459 32.811 0 45.269 6.229 6.208 14.4 9.323 22.613 9.323s16.428-3.115 22.636-9.323l94.741-94.763 94.741 94.763z" />
<glyph unicode="&#xe901;" glyph-name="accessibility" d="M512.009 624.51c27.84 0 50.411 22.592 50.411 50.432s-22.571 50.432-50.411 50.432c-27.861 0-50.432-22.592-50.432-50.432s22.571-50.432 50.432-50.432zM551.313 599.783l156.907 16.832c15.253 1.621 28.907-9.387 30.549-24.619 1.621-15.232-9.387-28.907-24.64-30.549l-139.008-14.891v-134.678c0-1.344 0.128-2.731 0.384-4.053l39.723-204.117c2.923-15.061-6.891-29.611-21.931-32.555-15.040-2.923-29.568 6.891-32.512 21.931l-37.397 192.149h-22.635l-37.376-192.149c-2.923-15.040-17.493-24.853-32.533-21.931-15.019 2.944-24.832 17.493-21.91 32.555l39.723 204.117c0.277 1.323 0.405 2.709 0.405 4.053v134.656l-139.222 14.912c-15.211 1.643-26.24 15.317-24.597 30.549s15.317 26.24 30.528 24.619l156.928-16.832c1.515-0.171 3.051-0.256 4.565-0.256h69.483c1.515 0 3.029 0.085 4.565 0.256zM512.009 874.656c-235.646 0-426.665-190.997-426.665-426.665 0-235.627 191.019-426.667 426.665-426.667 235.627 0 426.667 191.040 426.667 426.667 0 235.668-191.040 426.665-426.667 426.665zM512.009 85.325c-199.998 0-362.665 162.709-362.665 362.667 0 199.998 162.667 362.665 362.665 362.665 199.957 0 362.667-162.667 362.667-362.665 0-199.957-162.709-362.667-362.667-362.667z" />
<glyph unicode="&#xe902;" glyph-name="activity" d="M398.541 21.333c-13.248 0-25.173 8.192-29.888 20.587l-137.259 359.104h-156.736c-17.664 0-32 14.336-32 32s14.336 32 32 32h178.752c13.269 0 25.173-8.192 29.931-20.587l114.731-300.203 246.848 666.88c4.651 12.544 16.619 20.885 29.995 20.885h0.064c13.397-0.021 25.365-8.405 29.973-20.971l126.891-346.005h117.483c17.664 0 32-14.336 32-32s-14.336-32-32-32h-139.819c-13.44 0-25.451 8.363-30.059 20.971l-104.661 285.44-246.251-665.216c-4.629-12.48-16.491-20.821-29.824-20.885h-0.171z" />
<glyph unicode="&#xe903;" glyph-name="add_alt_fill" d="M512 21.333c235.648 0 426.667 191.019 426.667 426.667s-191.019 426.667-426.667 426.667c-235.648 0-426.667-191.019-426.667-426.667s191.019-426.667 426.667-426.667zM544 480h149.333c17.6 0 32-14.4 32-32s-14.4-32-32-32h-149.333v-149.333c0-17.6-14.4-32-32-32s-32 14.4-32 32v149.333h-149.333c-17.6 0-32 14.4-32 32s14.4 32 32 32h149.333v149.333c0 17.6 14.4 32 32 32s32-14.4 32-32v-149.333z" />
<glyph unicode="&#xe904;" glyph-name="add_alt" d="M543.991 480h149.333c17.6 0 32-14.4 32-32s-14.4-32-32-32h-149.333v-149.333c0-17.6-14.4-32-32-32s-32 14.4-32 32v149.333h-149.332c-17.6 0-32 14.4-32 32s14.4 32 32 32h149.332v149.333c0 17.6 14.4 32 32 32s32-14.4 32-32v-149.333zM85.326 448c0 235.648 191.019 426.667 426.666 426.667s426.667-191.019 426.667-426.667c0-235.648-191.019-426.667-426.667-426.667s-426.666 191.019-426.666 426.667zM149.326 448c0-199.979 162.709-362.667 362.666-362.667 199.979 0 362.667 162.688 362.667 362.667s-162.688 362.667-362.667 362.667c-199.956 0-362.666-162.688-362.666-362.667z" />
<glyph unicode="&#xe905;" glyph-name="add_cart" d="M274.23 277.824c4.864-25.003 26.901-43.157 52.373-43.157h473.388c17.685 0 32-14.336 32-32s-14.315-32-32-32h-473.388c-56.064 0-104.491 39.915-115.179 94.933l-104.619 536.427c-0.981 5.013-5.376 8.64-10.496 8.64h-64.32c-17.664 0-32 14.336-32 32s14.336 32 32 32h64.342c35.669 0 66.475-25.408 73.301-60.416l17.338-88.917h79.695c17.664 0 32-14.336 32-32s-14.336-32-32-32h-67.215l49.917-256h557.929c10.219 0 18.987 7.232 20.949 17.28l46.4 238.72h-74.645c-17.664 0-32 14.336-32 32s14.336 32 32 32h74.645c40.256 0 70.507-36.715 62.805-76.203l-46.379-238.741c-7.808-40.107-42.923-69.056-83.776-69.056h-545.45l12.384-63.509zM383.998 42.667c0-35.349-28.651-64-64-64s-64 28.651-64 64c0 35.349 28.651 64 64 64s64-28.651 64-64zM810.667 42.667c0-35.349-28.651-64-64-64s-64 28.651-64 64c0 35.349 28.651 64 64 64s64-28.651 64-64zM533.333 864c-17.6 0-32-14.4-32-32v-106.667h-106.668c-17.6 0-32-14.4-32-32s14.4-32 32-32h106.668v-106.667c0-17.6 14.4-32 32-32 17.579 0 32 14.4 32 32v106.667h106.667c17.579 0 32 14.4 32 32s-14.421 32-32 32h-106.667v106.667c0 17.6-14.421 32-32 32z" />
<glyph unicode="&#xe906;" glyph-name="add_square_fill" d="M128 192c0-70.4 57.6-128 128-128h512c70.4 0 128 57.6 128 128v512c0 70.4-57.6 128-128 128h-512c-70.4 0-128-57.6-128-128v-512zM544 480h149.333c17.6 0 32-14.4 32-32s-14.4-32-32-32h-149.333v-149.333c0-17.6-14.4-32-32-32s-32 14.4-32 32v149.333h-149.333c-17.6 0-32 14.4-32 32s14.4 32 32 32h149.333v149.333c0 17.6 14.4 32 32 32s32-14.4 32-32v-149.333z" />
<glyph unicode="&#xe907;" glyph-name="add_square" d="M544 480h149.333c17.6 0 32-14.4 32-32s-14.4-32-32-32h-149.333v-149.333c0-17.6-14.4-32-32-32s-32 14.4-32 32v149.333h-149.333c-17.6 0-32 14.4-32 32s14.4 32 32 32h149.333v149.333c0 17.6 14.4 32 32 32s32-14.4 32-32v-149.333zM256 832h512c70.4 0 128-57.6 128-128v-512c0-70.4-57.6-128-128-128h-512c-70.4 0-128 57.6-128 128v512c0 70.4 57.6 128 128 128zM768 128c35.285 0 64 28.715 64 64v512c0 35.285-28.715 64-64 64h-512c-35.285 0-64-28.715-64-64v-512c0-35.285 28.715-64 64-64h512z" />
<glyph unicode="&#xe908;" glyph-name="add" d="M810.667 490.667h-256v256c0 23.552-19.115 42.667-42.667 42.667s-42.667-19.115-42.667-42.667v-256h-256c-23.552 0-42.667-19.115-42.667-42.667s19.115-42.667 42.667-42.667h256v-256c0-23.552 19.115-42.667 42.667-42.667s42.667 19.115 42.667 42.667v256h256c23.552 0 42.667 19.115 42.667 42.667s-19.115 42.667-42.667 42.667z" />
<glyph unicode="&#xe909;" glyph-name="address_book_fill" d="M746.667 253.248c0 0.128-0.021 0.235-0.021 0.341-0.064-10.475-9.557-18.923-21.312-18.923h-384c-11.755 0-21.248 8.448-21.312 18.923 0-0.107-0.021-0.213-0.021-0.341v0.427c0-0.021 0.021-0.043 0.021-0.085 0.213 83.499 76.907 151.744 170.645 151.744h85.333c93.739 0 170.432-68.245 170.645-151.744 0 0.043 0.021 0.064 0.021 0.085v-0.427zM533.333 661.333c58.923 0 106.667-47.744 106.667-106.667s-47.744-106.667-106.667-106.667c-58.923 0-106.667 47.744-106.667 106.667s47.744 106.667 106.667 106.667zM746.667 896h-426.667c-70.677 0-128-57.323-128-128v-64h-10.667c-17.664 0-32-14.336-32-32s14.336-32 32-32h10.667v-149.333h-10.667c-17.664 0-32-14.336-32-32s14.336-32 32-32h10.667v-149.333h-10.667c-17.664 0-32-14.336-32-32s14.336-32 32-32h10.667v-85.333c0-70.699 57.323-128 128-128h426.667c70.677 0 128 57.301 128 128v640c0 70.677-57.323 128-128 128z" />
<glyph unicode="&#xe90a;" glyph-name="address_book" d="M533.333 448c58.923 0 106.667 47.744 106.667 106.667s-47.744 106.667-106.667 106.667c-58.923 0-106.667-47.744-106.667-106.667s47.744-106.667 106.667-106.667zM533.333 597.333c23.552 0 42.667-19.115 42.667-42.667s-19.115-42.667-42.667-42.667c-23.552 0-42.667 19.115-42.667 42.667s19.115 42.667 42.667 42.667zM576.004 405.333h-85.333c-93.76 0-170.453-68.267-170.667-151.765 0.085-10.453 9.579-18.901 21.333-18.901h384c11.755 0 21.248 8.448 21.333 18.901-0.213 83.499-76.928 151.765-170.667 151.765zM399.834 298.667c18.965 25.344 52.992 42.667 90.837 42.667h85.333c37.909 0 72-17.365 90.944-42.667h-267.115zM320 896h426.667c70.677 0 128-57.323 128-128v-640c0-70.677-57.323-128-128-128h-426.667c-70.677 0-128 57.323-128 128v85.333h-10.667c-17.664 0-32 14.336-32 32s14.336 32 32 32h10.667v149.333h-10.667c-17.664 0-32 14.336-32 32s14.336 32 32 32h10.667v149.333h-10.667c-17.664 0-32 14.336-32 32s14.336 32 32 32h10.667v64c0 70.677 57.323 128 128 128zM746.667 64c35.285 0 64 28.715 64 64v640c0 35.285-28.715 64-64 64h-426.667c-35.285 0-64-28.715-64-64v-640c0-35.285 28.715-64 64-64h426.667z" />
<glyph unicode="&#xe90b;" glyph-name="adult_mark_fill" d="M555.307 504.533c0 39.679 31.787 70.185 72.107 70.185v-0.213c40.32 0 71.68-31.787 71.68-71.465 0-39.68-31.573-68.693-72.533-68.693s-71.253 30.507-71.253 70.187zM85.333 448c0 235.733 190.933 426.667 426.667 426.667s426.667-190.933 426.667-426.667c0-235.733-190.933-426.667-426.667-426.667s-426.667 190.933-426.667 426.667zM369.067 234.453c24.107 0 40.32 16.213 40.32 40.96v315.52c0 28.16-17.28 45.867-46.293 45.867-16.853 0-29.867-2.347-48.853-15.36l-77.44-53.547c-12.8-8.747-17.707-18.133-17.707-30.507 0-17.28 12.373-29.227 28.8-29.227 8.533 0 14.080 1.92 21.76 7.253l57.173 39.893h1.707v-279.893c0-24.747 16.427-40.96 40.533-40.96zM495.147 296.107c16.213-34.773 63.787-64.64 128.427-64.64 103.68 0 165.76 77.44 165.76 207.36 0 45.867-8.107 84.48-23.040 114.56-28.373 57.387-77.653 86.4-139.947 86.4-87.253 0-150.613-57.6-150.613-138.667 0-76.16 57.387-127.573 129.707-127.573 51.627 0 90.027 25.813 104.107 63.36h1.707v-4.267c-0.213-81.493-26.88-136.533-84.48-136.533-29.653 0-46.933 10.453-65.067 32.427-12.16 13.653-21.547 20.907-37.973 20.907-21.76 0-33.92-13.867-33.92-32 0-7.040 1.493-13.653 5.333-21.333z" />
<glyph unicode="&#xe90c;" glyph-name="adult_mark" d="M328.32 555.309h-1.707l-57.173-39.895c-7.68-5.333-13.227-7.253-21.76-7.253-16.427 0-28.8 11.947-28.8 29.229 0 12.373 4.907 21.76 17.707 30.507l77.44 53.547c18.987 13.013 32 15.36 48.853 15.36 29.013 0 46.293-17.707 46.293-45.867v-315.735c0-24.747-16.213-40.96-40.32-40.96s-40.533 16.213-40.533 40.96v280.109zM489.813 317.653c0-7.040 1.493-13.653 5.333-21.333 16.213-34.773 63.787-64.64 128.427-64.64 103.68 0 165.76 77.44 165.76 207.36 0 45.867-8.107 84.48-23.040 114.56-28.373 57.387-77.653 86.4-139.947 86.4-87.253 0-150.613-57.6-150.613-138.667 0-76.16 57.387-127.573 129.707-127.573 51.627 0 90.027 25.813 104.107 63.36h1.707v-4.267c-0.213-81.493-26.88-136.533-84.48-136.533-29.653 0-46.933 10.453-65.067 32.427-12.16 13.653-21.547 20.907-37.973 20.907-21.76 0-33.92-13.867-33.92-32zM627.413 574.72c40.32 0 71.68-31.147 71.68-71.467v-0.213c0-39.68-31.573-68.693-72.533-68.693s-71.253 30.507-71.253 70.187c0 39.68 31.787 70.187 72.107 70.187zM512 874.667c-235.733 0-426.667-190.933-426.667-426.667s190.933-426.667 426.667-426.667c235.733 0 426.667 190.933 426.667 426.667s-190.933 426.667-426.667 426.667zM512 810.667c199.893 0 362.667-162.773 362.667-362.667s-162.773-362.667-362.667-362.667c-199.893 0-362.667 162.773-362.667 362.667s162.773 362.667 362.667 362.667z" />
<glyph unicode="&#xe90d;" glyph-name="alarm_add" d="M843.52 700.159c13.44-11.307 33.707-9.6 45.013 4.053 11.307 13.44 9.6 33.706-3.84 45.013l-149.547 117.973c-13.44 11.307-33.707 9.6-45.013-4.053s-9.6-33.707 4.053-45.013l149.547-117.973h-0.213zM544 437.333h106.667c17.707 0 32-14.293 32-32s-14.293-32-32-32h-106.667v-106.667c0-17.707-14.293-32-32-32s-32 14.293-32 32v106.667h-106.667c-17.707 0-32 14.293-32 32s14.293 32 32 32h106.667v106.667c0 17.707 14.293 32 32 32s32-14.293 32-32v-106.667zM896 405.333c0-105.173-42.453-200.747-111.147-270.080h-0.427l59.307-59.307c12.373-12.373 12.373-32.853 0-45.227-6.187-6.187-14.507-9.387-22.613-9.387s-16.427 3.2-22.613 9.387l-62.933 62.933c-63.147-45.227-140.16-72.32-223.787-72.32s-160.64 26.88-223.787 72.32l-62.933-62.933c-6.187-6.187-14.507-9.387-22.613-9.387s-16.427 3.2-22.613 9.387c-12.373 12.373-12.373 32.853 0 45.227l59.307 59.307c-68.693 69.333-111.147 164.693-111.147 270.080 0 212.053 171.947 384 384 384s384-171.947 384-384zM512 725.333c-176.427 0-320-143.573-320-320s143.573-320 320-320c176.427 0 320 143.573 320 320s-143.573 320-320 320zM330.031 818.134l-149.547-117.973c-13.44-11.307-33.707-9.387-45.013 4.053s-9.387 33.707 4.053 45.013l149.547 117.973c13.44 11.307 33.707 9.387 45.013-4.053s9.387-33.707-4.053-45.013z" />
<glyph unicode="&#xe90e;" glyph-name="alarm_subtract" d="M843.52 700.159c13.44-11.307 33.707-9.6 45.013 4.053 11.307 13.44 9.6 33.706-3.84 45.013l-149.547 117.973c-13.44 11.307-33.707 9.6-45.013-4.053s-9.6-33.707 4.053-45.013l149.547-117.973h-0.213zM341.333 405.333c0 17.707 14.293 32 32 32h277.333c17.707 0 32-14.293 32-32s-14.293-32-32-32h-277.333c-17.707 0-32 14.293-32 32zM896 405.333c0-105.173-42.453-200.747-111.147-270.080h-0.427l59.307-59.307c12.373-12.373 12.373-32.853 0-45.227-6.187-6.187-14.507-9.387-22.613-9.387s-16.427 3.2-22.613 9.387l-62.933 62.933c-63.147-45.227-140.16-72.32-223.787-72.32s-160.64 26.88-223.787 72.32l-62.933-62.933c-6.187-6.187-14.507-9.387-22.613-9.387s-16.427 3.2-22.613 9.387c-12.373 12.373-12.373 32.853 0 45.227l59.307 59.307c-68.693 69.333-111.147 164.693-111.147 270.080 0 212.053 171.947 384 384 384s384-171.947 384-384zM512 725.333c-176.427 0-320-143.573-320-320s143.573-320 320-320c176.427 0 320 143.573 320 320s-143.573 320-320 320zM330.031 818.134l-149.547-117.973c-13.44-11.307-33.707-9.387-45.013 4.053s-9.387 33.707 4.053 45.013l149.547 117.973c13.44 11.307 33.707 9.387 45.013-4.053s9.387-33.707-4.053-45.013z" />
<glyph unicode="&#xe90f;" glyph-name="alarm" d="M843.52 700.159c13.44-11.307 33.707-9.6 45.013 4.053 11.307 13.44 9.6 33.706-3.84 45.013l-149.547 117.973c-13.44 11.307-33.707 9.6-45.013-4.053s-9.6-33.707 4.053-45.013l149.547-117.973h-0.213zM544 586.667v-168.107l-0.213-0.213 117.333-117.333c12.587-12.373 12.587-32.64 0-45.227-6.187-6.187-14.507-9.387-22.613-9.387s-16.427 3.2-22.613 9.387l-126.72 126.72c-0.213 0.427-0.427 0.853-0.64 1.067-2.347 2.56-4.48 5.547-5.973 8.96l-0.166 0.474c-0.145 0.397-0.26 0.708-0.26 1.020-1.28 3.413-2.133 7.040-2.133 10.88v181.76c0 17.707 14.293 32 32 32s32-14.293 32-32zM896 405.333c0-105.173-42.453-200.747-111.147-270.080h-0.427l59.307-59.307c12.373-12.373 12.373-32.853 0-45.227-6.187-6.187-14.507-9.387-22.613-9.387s-16.427 3.2-22.613 9.387l-62.933 62.933c-63.147-45.227-140.16-72.32-223.787-72.32s-160.64 26.88-223.787 72.32l-62.933-62.933c-6.187-6.187-14.507-9.387-22.613-9.387s-16.427 3.2-22.613 9.387c-12.373 12.373-12.373 32.853 0 45.227l59.307 59.307c-68.693 69.333-111.147 164.693-111.147 270.080 0 212.053 171.947 384 384 384s384-171.947 384-384zM512 725.333c-176.427 0-320-143.573-320-320s143.573-320 320-320c176.427 0 320 143.573 320 320s-143.573 320-320 320zM330.025 818.134l-149.547-117.973h0.213c-13.44-11.307-33.707-9.387-45.013 4.053-11.52 13.44-9.6 33.707 3.84 45.013l149.547 117.973c13.44 11.307 33.707 9.387 45.013-4.053s9.387-33.707-4.053-45.013z" />
<glyph unicode="&#xe910;" glyph-name="all_check" d="M884.041 822.626c12.506 12.501 32.747 12.501 45.252 0 12.497-12.501 12.497-32.747 0-45.248l-448-448c-2.607-2.603-5.7-4.352-8.836-5.867-4.373-2.112-9.024-3.52-13.798-3.52-4.757 0-9.408 1.408-13.781 3.52-3.136 1.515-6.229 3.264-8.836 5.867l-127.998 128c-12.501 12.501-12.501 32.747 0 45.248 6.251 6.251 14.443 9.365 22.613 9.365 8.192 0 16.384-3.115 22.635-9.365l105.367-105.365 425.382 425.365zM832 458.667c0 17.664 14.336 32 32 32s32-14.336 32-32v-309.333c0-70.677-57.323-128-128-128h-554.667c-70.677 0-128 57.323-128 128v554.667c0 70.677 57.323 128 128 128h394.667c17.664 0 32-14.336 32-32s-14.336-32-32-32h-394.667c-35.328 0-64-28.651-64-64v-554.667c0-35.349 28.672-64 64-64h554.667c35.328 0 64 28.651 64 64v309.333z" />
<glyph unicode="&#xe911;" glyph-name="analytics" d="M170.667 128h736c17.664 0 32-14.336 32-32s-14.336-32-32-32h-736c-47.125 0-85.333 38.208-85.333 85.333v650.667c0 17.664 14.336 32 32 32s32-14.336 32-32v-650.667c0-11.797 9.536-21.333 21.333-21.333zM936.324 705.239c0.021-0.078 0.043-0.158 0.073-0.238 1.408-3.627 2.261-7.552 2.261-11.669v-192.002c0-17.664-14.315-31.996-32-31.996-17.664 0-32 14.332-32 31.996v114.754l-217.173-217.218c-1.724-1.702-3.776-2.829-5.811-3.959-0.41-0.23-0.819-0.457-1.229-0.687-12.224-6.976-27.819-5.76-38.229 4.646l-128.597 128.619-194.304-194.3c-12.501-12.506-32.747-12.506-45.248 0-12.501 12.497-12.501 32.747 0 45.244l216.533 216.578c6.357 6.336 14.699 9.387 23.019 9.28 8.32 0.085 16.661-2.944 22.997-9.301l128.213-128.215 194.581 194.562h-114.752c-17.664 0-32 14.336-32 32s14.336 32 32 32h192c4.117 0 8.043-0.853 11.669-2.261 0.085-0.032 0.171-0.053 0.256-0.075s0.171-0.043 0.256-0.075c7.872-3.264 14.165-9.536 17.408-17.429 0.034-0.079 0.055-0.164 0.077-0.253z" />
<glyph unicode="&#xe912;" glyph-name="answer_circle" d="M512.004 874.667c235.652 0 426.671-191.043 426.671-426.671 0-235.674-191.019-426.671-426.671-426.671-235.629 0-426.671 190.997-426.671 426.671 0 235.628 191.042 426.671 426.671 426.671zM512.004 810.666c-199.959 0-362.67-162.711-362.67-362.67 0-200.004 162.711-362.671 362.67-362.671 199.979 0 362.671 162.667 362.671 362.671 0 199.959-162.692 362.67-362.671 362.67zM511.569 671.215c27.712 0 44.629-12.267 55.125-40.555l122.496-332.505c3.499-9.621 4.971-16.32 4.971-23.040 0-20.416-15.765-34.709-37.632-34.709-20.416 0-31.787 9.344-38.507 31.808l-27.712 80.491h-157.205l-27.713-79.915c-6.998-22.763-18.070-32.384-37.611-32.384-23.040 0-37.931 13.419-37.931 34.709 0 5.845 1.472 13.995 4.971 23.040l122.199 332.227c10.219 27.99 27.136 40.832 54.549 40.832zM512.145 591.875h-2.027l-59.221-179.672h121.045l-59.797 179.672z" />
<glyph unicode="&#xe913;" glyph-name="answer" d="M797.12 170.923l-212.211 583.199c-8.154 22.316-29.611 35.833-51.925 35.189h-42.483c-22.101 0-42.701-13.088-50.637-34.975l-212.64-583.414c-10.085-27.895 4.291-58.577 31.971-68.663 27.894-10.082 58.577 4.292 68.662 31.97l54.93 151.057h258.34l54.929-151.057c10.086-27.891 40.986-42.27 68.663-31.97 27.682 10.3 42.27 40.986 31.97 68.663h0.431zM422.053 392.358l90.118 247.827 90.121-247.827h-180.239z" />
<glyph unicode="&#xe914;" glyph-name="aperture" d="M733.636 161.583l-157.675 91.008 297.515 171.947c-6.891-106.859-60.053-201.088-139.84-262.955zM384.005 109.103v180.437l288.213-166.421c-48.384-23.957-102.656-37.781-160.213-37.781-45.12 0-88.149 8.661-128 23.765zM153.562 395.631l166.443 96.085v-350.827c-88.192 55.36-150.805 147.392-166.443 254.741zM293.679 736.922l161.493-93.248-304.853-176.001c5.952 109.868 60.8 206.678 143.36 269.249zM640.004 786.906v-176.043l-284.074 164.011c47.36 22.699 100.138 35.797 156.074 35.797 45.099 0 88.128-8.661 128-23.765zM384.005 363.418v165.248l135.168 78.038 120.832-69.739v-173.441l-128.021-73.984-127.978 73.877zM870.959 497.007l-166.955-96.491v354.582c89.131-55.915 152.149-149.312 166.955-258.092zM512.004 874.672c-235.648 0-426.666-191.019-426.666-426.668s191.019-426.667 426.666-426.667c235.627 0 426.667 191.019 426.667 426.667s-191.040 426.668-426.667 426.668z" />
<glyph unicode="&#xe915;" glyph-name="api_fill" d="M745.749 259.499c19.051 11.243 41.195 17.835 64.917 17.835 70.677 0 128-57.323 128-128s-57.323-128-128-128c-70.677 0-128 57.323-128 128 0 23.723 6.592 45.867 17.835 64.917l-62.144 62.144c-35.392-26.112-78.997-41.728-126.357-41.728s-90.965 15.616-126.357 41.728l-62.144-62.144c11.243-19.051 17.835-41.195 17.835-64.917 0-70.677-57.323-128-128-128s-128 57.323-128 128c0 70.677 57.323 128 128 128 23.723 0 45.867-6.592 64.917-17.835l62.144 62.144c-26.112 35.392-41.728 78.997-41.728 126.357s15.616 90.965 41.728 126.357l-62.144 62.144c-19.051-11.243-41.195-17.835-64.917-17.835-70.677 0-128 57.323-128 128s57.323 128 128 128c70.677 0 128-57.323 128-128 0-23.723-6.592-45.867-17.835-64.917l62.144-62.144c35.392 26.112 78.997 41.728 126.357 41.728s90.965-15.616 126.357-41.728l62.144 62.144c-11.243 19.051-17.835 41.195-17.835 64.917 0 70.677 57.323 128 128 128s128-57.323 128-128c0-70.677-57.323-128-128-128-23.723 0-45.867 6.592-64.917 17.835l-62.144-62.144c26.112-35.392 41.728-78.997 41.728-126.357s-15.616-90.965-41.728-126.357l62.144-62.144zM746.667 149.333c0-35.285 28.715-64 64-64s64 28.715 64 64c0 35.285-28.715 64-64 64s-64-28.715-64-64zM874.667 746.667c0 35.285-28.715 64-64 64s-64-28.715-64-64c0-35.285 28.715-64 64-64s64 28.715 64 64zM149.333 149.333c0-35.285 28.715-64 64-64s64 28.715 64 64c0 35.285-28.715 64-64 64s-64-28.715-64-64zM213.333 810.667c-35.285 0-64-28.715-64-64s28.715-64 64-64c35.285 0 64 28.715 64 64s-28.715 64-64 64zM512 384c35.349 0 64 28.651 64 64s-28.651 64-64 64c-35.349 0-64-28.651-64-64s28.651-64 64-64z" />
<glyph unicode="&#xe916;" glyph-name="api" d="M448 448c0 35.328 28.672 64 64 64s64-28.672 64-64c0-35.328-28.672-64-64-64s-64 28.672-64 64zM745.749 259.499c19.051 11.243 41.195 17.835 64.917 17.835 70.677 0 128-57.323 128-128s-57.323-128-128-128c-70.677 0-128 57.323-128 128 0 23.723 6.592 45.867 17.835 64.917l-62.144 62.144c-35.392-26.112-78.997-41.728-126.357-41.728s-90.965 15.616-126.357 41.728l-62.144-62.144c11.243-19.051 17.835-41.195 17.835-64.917 0-70.677-57.323-128-128-128s-128 57.323-128 128c0 70.677 57.323 128 128 128 23.723 0 45.867-6.592 64.917-17.835l62.144 62.144c-26.112 35.392-41.728 78.997-41.728 126.357s15.616 90.965 41.728 126.357l-62.144 62.144c-19.051-11.243-41.195-17.835-64.917-17.835-70.677 0-128 57.323-128 128s57.323 128 128 128c70.677 0 128-57.323 128-128 0-23.723-6.592-45.867-17.835-64.917l62.144-62.144c35.392 26.112 78.997 41.728 126.357 41.728s90.965-15.616 126.357-41.728l62.144 62.144c-11.243 19.051-17.835 41.195-17.835 64.917 0 70.677 57.323 128 128 128s128-57.323 128-128c0-70.677-57.323-128-128-128-23.723 0-45.867 6.592-64.917 17.835l-62.144-62.144c26.112-35.392 41.728-78.997 41.728-126.357s-15.616-90.965-41.728-126.357l62.144-62.144zM746.667 149.333c0-35.285 28.715-64 64-64s64 28.715 64 64c0 35.285-28.715 64-64 64s-64-28.715-64-64zM512 597.333c-82.325 0-149.333-67.008-149.333-149.333s67.008-149.333 149.333-149.333c82.325 0 149.333 67.008 149.333 149.333s-67.008 149.333-149.333 149.333zM149.333 149.333c0-35.285 28.715-64 64-64s64 28.715 64 64c0 35.285-28.715 64-64 64s-64-28.715-64-64zM213.333 810.667c-35.285 0-64-28.715-64-64s28.715-64 64-64c35.285 0 64 28.715 64 64s-28.715 64-64 64zM874.667 746.667c0 35.285-28.715 64-64 64s-64-28.715-64-64c0-35.285 28.715-64 64-64s64 28.715 64 64z" />
<glyph unicode="&#xe917;" glyph-name="app_switcher_fill" d="M234.667 661.333h-42.667c-35.349 0-64 28.651-64 64v42.667c0 35.349 28.651 64 64 64h42.667c35.349 0 64-28.651 64-64v-42.667c0-35.349-28.651-64-64-64zM533.333 661.333h-42.667c-35.349 0-64 28.651-64 64v42.667c0 35.349 28.651 64 64 64h42.667c35.349 0 64-28.651 64-64v-42.667c0-35.349-28.651-64-64-64zM789.333 661.333h42.667c35.349 0 64 28.651 64 64v42.667c0 35.349-28.651 64-64 64h-42.667c-35.349 0-64-28.651-64-64v-42.667c0-35.349 28.651-64 64-64zM234.667 362.667h-42.667c-35.349 0-64 28.651-64 64v42.667c0 35.349 28.651 64 64 64h42.667c35.349 0 64-28.651 64-64v-42.667c0-35.349-28.651-64-64-64zM490.667 362.667h42.667c35.349 0 64 28.651 64 64v42.667c0 35.349-28.651 64-64 64h-42.667c-35.349 0-64-28.651-64-64v-42.667c0-35.349 28.651-64 64-64zM832 362.667h-42.667c-35.349 0-64 28.651-64 64v42.667c0 35.349 28.651 64 64 64h42.667c35.349 0 64-28.651 64-64v-42.667c0-35.349-28.651-64-64-64zM192 64h42.667c35.349 0 64 28.651 64 64v42.667c0 35.349-28.651 64-64 64h-42.667c-35.349 0-64-28.651-64-64v-42.667c0-35.349 28.651-64 64-64zM533.333 64h-42.667c-35.349 0-64 28.651-64 64v42.667c0 35.349 28.651 64 64 64h42.667c35.349 0 64-28.651 64-64v-42.667c0-35.349-28.651-64-64-64zM789.333 64h42.667c35.349 0 64 28.651 64 64v42.667c0 35.349-28.651 64-64 64h-42.667c-35.349 0-64-28.651-64-64v-42.667c0-35.349 28.651-64 64-64z" />
<glyph unicode="&#xe918;" glyph-name="app_switcher" d="M234.667 874.667c35.349 0 64-28.651 64-64v-85.333c0-35.349-28.651-64-64-64h-85.333c-35.349 0-64 28.651-64 64v85.333c0 35.349 28.651 64 64 64h85.333zM149.333 725.333h85.333v85.333h-85.333v-85.333zM554.667 874.219c35.349 0 64-28.651 64-64v-85.333c0-35.349-28.651-64-64-64h-85.333c-35.349 0-64 28.651-64 64v85.333c0 35.349 28.651 64 64 64h85.333zM469.333 724.885h85.333v85.333h-85.333v-85.333zM554.667 554.219c35.349 0 64-28.651 64-64v-85.333c0-35.349-28.651-64-64-64h-85.333c-35.349 0-64 28.651-64 64v85.333c0 35.349 28.651 64 64 64h85.333zM469.333 404.885h85.333v85.333h-85.333v-85.333zM469.333 234.667c-35.349 0-64-28.651-64-64v-85.333c0-35.349 28.651-64 64-64h85.333c35.349 0 64 28.651 64 64v85.333c0 35.349-28.651 64-64 64h-85.333zM554.667 85.333h-85.333v85.333h85.333v-85.333zM149.333 554.667c-35.349 0-64-28.651-64-64v-85.333c0-35.349 28.651-64 64-64h85.333c35.349 0 64 28.651 64 64v85.333c0 35.349-28.651 64-64 64h-85.333zM234.667 405.333h-85.333v85.333h85.333v-85.333zM234.667 234.667c35.349 0 64-28.651 64-64v-85.333c0-35.349-28.651-64-64-64h-85.333c-35.349 0-64 28.651-64 64v85.333c0 35.349 28.651 64 64 64h85.333zM149.333 85.333h85.333v85.333h-85.333v-85.333zM789.333 874.667c-35.349 0-64-28.651-64-64v-85.333c0-35.349 28.651-64 64-64h85.333c35.349 0 64 28.651 64 64v85.333c0 35.349-28.651 64-64 64h-85.333zM874.667 725.333h-85.333v85.333h85.333v-85.333zM874.667 554.667c35.349 0 64-28.651 64-64v-85.333c0-35.349-28.651-64-64-64h-85.333c-35.349 0-64 28.651-64 64v85.333c0 35.349 28.651 64 64 64h85.333zM789.333 405.333h85.333v85.333h-85.333v-85.333zM789.333 234.667c-35.349 0-64-28.651-64-64v-85.333c0-35.349 28.651-64 64-64h85.333c35.349 0 64 28.651 64 64v85.333c0 35.349-28.651 64-64 64h-85.333zM874.667 85.333h-85.333v85.333h85.333v-85.333z" />
<glyph unicode="&#xe919;" glyph-name="apple" d="M635.738 736.687c-28.267-35.182-75.733-61.568-113.6-61.568-4.267 0-8.533 0.55-11.2 1.099-0.533 2.199-1.6 8.796-1.6 15.392 0 45.077 21.867 89.055 45.867 117.091 30.4 36.831 81.067 64.317 123.2 65.967 1.067-4.948 1.6-10.994 1.6-17.041 0-44.527-18.667-89.055-44.267-120.939zM450.257 26.347c-19.008-8.414-37.018-16.388-61.457-16.388-52.267 0-88.533 49.476-130.133 109.943-48.533 71.462-88 181.956-88 286.404 0 168.215 106.133 257.27 210.667 257.27 30.511 0 58.389-11.532 83.179-21.785 19.84-8.208 37.705-15.596 53.355-15.596 13.572 0 30.49 6.89 50.206 14.921 27.541 11.217 60.54 24.659 97.527 24.659 23.467 0 109.333-2.199 165.867-85.757-0.324-0.259-1.015-0.73-2.022-1.415-13.909-9.465-88.111-59.952-88.111-163.5 0-128.085 108.267-173.713 112-174.814-0.094-0.247-0.316-0.951-0.67-2.069-3.558-11.354-20.523-65.481-56.93-120.516-35.733-52.774-73.6-106.645-130.133-106.645-27.866 0-45.619 8.102-63.949 16.469-19.563 8.93-39.787 18.163-73.651 18.163-34.048 0-56.516-9.95-77.743-19.345z" />
<glyph unicode="&#xe91a;" glyph-name="application_alt" d="M384 874.667h-213.333c-47.125 0-85.333-38.208-85.333-85.333v-213.333c0-47.125 38.208-85.333 85.333-85.333h213.333c47.125 0 85.333 38.208 85.333 85.333v213.333c0 47.125-38.208 85.333-85.333 85.333zM405.333 576c0-11.776-9.557-21.333-21.333-21.333h-213.333c-11.776 0-21.333 9.557-21.333 21.333v213.333c0 11.776 9.557 21.333 21.333 21.333h213.333c11.776 0 21.333-9.557 21.333-21.333v-213.333zM170.667 405.333h213.333c47.125 0 85.333-38.208 85.333-85.333v-213.333c0-47.125-38.208-85.333-85.333-85.333h-213.333c-47.125 0-85.333 38.208-85.333 85.333v213.333c0 47.125 38.208 85.333 85.333 85.333zM384 85.333c11.776 0 21.333 9.557 21.333 21.333v213.333c0 11.776-9.557 21.333-21.333 21.333h-213.333c-11.776 0-21.333-9.557-21.333-21.333v-213.333c0-11.776 9.557-21.333 21.333-21.333h213.333zM640 405.333h213.333c47.125 0 85.333-38.208 85.333-85.333v-213.333c0-47.125-38.208-85.333-85.333-85.333h-213.333c-47.125 0-85.333 38.208-85.333 85.333v213.333c0 47.125 38.208 85.333 85.333 85.333zM853.333 85.333c11.776 0 21.333 9.557 21.333 21.333v213.333c0 11.776-9.557 21.333-21.333 21.333h-213.333c-11.776 0-21.333-9.557-21.333-21.333v-213.333c0-11.776 9.557-21.333 21.333-21.333h213.333zM714.667 650.667h-128c-17.664 0-32 14.336-32 32s14.336 32 32 32h128v128c0 17.664 14.336 32 32 32s32-14.336 32-32v-128h128c17.664 0 32-14.336 32-32s-14.336-32-32-32h-128v-128c0-17.664-14.336-32-32-32s-32 14.336-32 32v128z" />
<glyph unicode="&#xe91b;" glyph-name="application" d="M213.333 832h277.333c47.125 0 85.333-38.208 85.333-85.333v-277.333c0-47.125-38.208-85.333-85.333-85.333h-277.333c-47.125 0-85.333 38.208-85.333 85.333v277.333c0 47.125 38.208 85.333 85.333 85.333zM512 746.667c0 11.776-9.557 21.333-21.333 21.333h-277.333c-11.776 0-21.333-9.557-21.333-21.333v-277.333c0-11.776 9.557-21.333 21.333-21.333h277.333c11.776 0 21.333 9.557 21.333 21.333v277.333zM725.333 640h85.333c47.125 0 85.333-38.208 85.333-85.333v-85.333c0-47.125-38.208-85.333-85.333-85.333h-85.333c-47.125 0-85.333 38.208-85.333 85.333v85.333c0 47.125 38.208 85.333 85.333 85.333zM832 554.667c0 11.776-9.557 21.333-21.333 21.333h-85.333c-11.776 0-21.333-9.557-21.333-21.333v-85.333c0-11.776 9.557-21.333 21.333-21.333h85.333c11.776 0 21.333 9.557 21.333 21.333v85.333zM725.333 320h85.333c47.125 0 85.333-38.208 85.333-85.333v-85.333c0-47.125-38.208-85.333-85.333-85.333h-85.333c-47.125 0-85.333 38.208-85.333 85.333v85.333c0 47.125 38.208 85.333 85.333 85.333zM832 234.667c0 11.776-9.557 21.333-21.333 21.333h-85.333c-11.776 0-21.333-9.557-21.333-21.333v-85.333c0-11.776 9.557-21.333 21.333-21.333h85.333c11.776 0 21.333 9.557 21.333 21.333v85.333zM490.667 320h-85.333c-47.125 0-85.333-38.208-85.333-85.333v-85.333c0-47.125 38.208-85.333 85.333-85.333h85.333c47.125 0 85.333 38.208 85.333 85.333v85.333c0 47.125-38.208 85.333-85.333 85.333zM490.667 256c11.776 0 21.333-9.557 21.333-21.333v-85.333c0-11.776-9.557-21.333-21.333-21.333h-85.333c-11.776 0-21.333 9.557-21.333 21.333v85.333c0 11.776 9.557 21.333 21.333 21.333h85.333z" />
<glyph unicode="&#xe91c;" glyph-name="approval_fill" d="M618.667 746.667h-213.333c-23.552 0-42.667 19.115-42.667 42.667v64c0 23.552 19.115 42.667 42.667 42.667h213.333c23.552 0 42.667-19.115 42.667-42.667v-64c0-23.552-19.115-42.667-42.667-42.667zM725.325 746.667v64c70.699 0 128-57.301 128-128v-554.667c0-70.677-57.301-128-128-128h-426.668c-70.677 0-128 57.323-128 128v554.667c0 70.699 57.323 128 128 128v-64c0-35.328 28.672-64 64-64h298.668c35.349 0 64 28.672 64 64zM473.826 180.117l220.8 220.8c12.501 12.501 12.501 32.747 0 45.248s-32.747 12.501-45.248 0l-198.251-198.229-76.503 76.501c-12.501 12.48-32.747 12.48-45.248 0-12.501-12.501-12.501-32.768 0-45.269l99.116-99.136c6.251-6.229 14.443-9.365 22.635-9.365 8.213 0 16.384 3.136 22.635 9.365l0.064 0.085z" />
<glyph unicode="&#xe91d;" glyph-name="approval" d="M649.387 446.080c6.187 6.187 14.507 9.387 22.613 9.387l-0.213 0.213c8.107 0 16.427-3.2 22.613-9.387 12.587-12.373 12.587-32.64 0-45.227l-220.8-220.8c-6.187-6.187-14.507-9.387-22.613-9.387s-16.427 2.987-22.613 9.387l-98.985 98.987c-12.587 12.373-12.587 32.64 0 45.227 6.187 6.187 14.507 9.387 22.613 9.387s16.427-3.2 22.613-9.387l76.585-76.587 198.187 198.187zM725.333 832v-21.333c70.613 0 128-57.387 128-128v-554.667c0-70.613-57.387-128-128-128h-426.667c-70.613 0-128 57.387-128 128v554.667c0 70.613 57.387 128 128 128v21.333c0 35.413 28.587 64 64 64h298.667c35.413 0 64-28.587 64-64zM661.333 832h-298.667v-85.333h298.667v85.333zM725.333 64c35.2 0 64 28.8 64 64v554.667c0 35.2-28.8 64-64 64 0-35.413-28.587-64-64-64h-298.667c-35.413 0-64 28.587-64 64-35.2 0-64-28.8-64-64v-554.667c0-35.2 28.8-64 64-64h426.667z" />
<glyph unicode="&#xe91e;" glyph-name="archive" d="M586.667 277.333h-149.333c-17.664 0-32 14.336-32 32s14.336 32 32 32h149.333c17.664 0 32-14.336 32-32s-14.336-32-32-32zM213.333 896h597.333c23.552 0 42.667-19.115 42.667-42.667v-768c0-47.125-38.208-85.333-85.333-85.333h-512c-47.125 0-85.333 38.208-85.333 85.333v768c0 23.552 19.115 42.667 42.667 42.667zM789.333 704v128h-554.667v-128h554.667zM789.333 512v128h-554.667v-128h554.667zM768 64c11.776 0 21.333 9.557 21.333 21.333v362.667h-554.667v-362.667c0-11.776 9.557-21.333 21.333-21.333h512z" />
<glyph unicode="&#xe91f;" glyph-name="archivebox" d="M654.229 405.333h-284.459c-15.701 0-28.437 14.336-28.437 32s12.736 32 28.437 32h284.459c15.701 0 28.437-14.336 28.437-32s-12.736-32-28.437-32zM170.667 874.667h682.667c47.125 0 85.333-38.208 85.333-85.333v-106.667c0-31.509-17.28-58.709-42.667-73.493v-459.84c0-70.677-57.323-128-128-128h-512c-70.677 0-128 57.323-128 128v459.84c-25.387 14.784-42.667 41.984-42.667 73.493v106.667c0 47.125 38.208 85.333 85.333 85.333zM768 85.333c35.285 0 64 28.715 64 64v448h-640v-448c0-35.285 28.715-64 64-64h512zM170.667 810.667c-11.776 0-21.333-9.557-21.333-21.333v-106.667c0-11.776 9.557-21.333 21.333-21.333h682.667c11.776 0 21.333 9.557 21.333 21.333v106.667c0 11.776-9.557 21.333-21.333 21.333h-682.667z" />
<glyph unicode="&#xe920;" glyph-name="arrow_back" d="M358.995 447.996l311.175 311.176c16.661 16.662 16.661 43.671 0 60.332s-43.669 16.662-60.331 0l-341.172-341.172c-0.021-0.021-0.043-0.064-0.085-0.085-0.021-0.021-0.064-0.043-0.085-0.085-16.662-16.661-16.662-43.669 0-60.331l341.343-341.342c16.661-16.661 43.669-16.661 60.331 0s16.661 43.669 0 60.331l-311.175 311.177z" />
<glyph unicode="&#xe921;" glyph-name="arrow_down_left" d="M800.004 768c-8.192 0-16.384-3.115-22.635-9.365l-521.369-521.391v370.755c0 17.685-14.336 32-32 32s-32-14.315-32-32v-448.003c0-17.685 14.336-32 32-32h448.004c17.664 0 32 14.315 32 32s-14.336 32-32 32h-370.755l521.39 521.369c12.48 12.501 12.48 32.768 0 45.27-6.251 6.251-14.443 9.365-22.635 9.365z" />
<glyph unicode="&#xe922;" glyph-name="arrow_down_right" d="M201.376 758.624c12.501 12.501 32.747 12.501 45.248 0l521.385-521.363v370.729c0 17.685 14.315 32 32 32 17.664 0 32-14.315 32-32v-447.998c0-17.664-14.336-32-32-32h-447.998c-17.685 0-32 14.336-32 32 0 17.685 14.315 32 32 32h370.729l-521.363 521.385c-12.501 12.48-12.501 32.768 0 45.248z" />
<glyph unicode="&#xe923;" glyph-name="arrow_down" d="M512.209 874.667h-0.427c-17.557 0-31.787-14.229-31.787-31.787v-712.469l-254.7 254.72c-6.251 6.251-14.443 9.365-22.635 9.365s-16.363-3.115-22.613-9.365c-12.501-12.501-12.501-32.768 0-45.269l309.185-309.184c6.251-6.229 14.421-9.344 22.613-9.344h0.213c8.192 0 16.384 3.115 22.635 9.344l309.269 309.291c12.501 12.48 12.501 32.747 0 45.248-6.251 6.251-14.443 9.387-22.635 9.387s-16.384-3.136-22.613-9.387l-254.72-254.699v712.363c0 17.557-14.229 31.787-31.787 31.787z" />
<glyph unicode="&#xe924;" glyph-name="arrow_left" d="M426.5 789.338c-8.192 0-16.384-3.115-22.635-9.365l-309.184-309.206c-6.272-6.272-9.365-14.485-9.344-22.72-0.021-8.213 3.072-16.448 9.344-22.72l309.269-309.291c6.251-6.251 14.443-9.365 22.635-9.365s16.363 3.115 22.614 9.365c12.501 12.501 12.501 32.768 0 45.269l-254.678 254.699h712.363c17.557 0 31.787 14.229 31.787 31.787v0.427c0 17.557-14.229 31.787-31.787 31.787h-712.47l254.72 254.7c12.48 12.501 12.48 32.768 0 45.269-6.251 6.251-14.443 9.365-22.635 9.365z" />
<glyph unicode="&#xe925;" glyph-name="arrow_right" d="M597.504 789.333c-8.192 0-16.384-3.115-22.635-9.365-12.48-12.501-12.48-32.768 0-45.269l254.72-254.699h-712.469c-17.557 0-31.787-14.229-31.787-31.787v-0.427c0-17.557 14.229-31.787 31.787-31.787h712.363l-254.677-254.699c-12.501-12.501-12.501-32.768 0-45.269 6.251-6.251 14.421-9.365 22.613-9.365s16.384 3.115 22.635 9.365l309.269 309.291c6.272 6.272 9.365 14.507 9.344 22.72 0.021 8.235-3.072 16.448-9.344 22.72l-309.184 309.205c-6.251 6.251-14.443 9.365-22.635 9.365z" />
<glyph unicode="&#xe926;" glyph-name="arrow_top" d="M512 558.333l311.177-311.174c16.661-16.661 43.669-16.661 60.331 0s16.661 43.669 0 60.331l-341.342 341.342c-16.661 16.662-43.669 16.662-60.331 0l-341.344-341.342c-16.662-16.661-16.662-43.669 0-60.331s43.671-16.661 60.332 0l311.177 311.174z" />
<glyph unicode="&#xe927;" glyph-name="arrow_up_left" d="M822.626 137.374c-12.501-12.501-32.747-12.501-45.248 0l-521.388 521.367v-370.732c0-17.685-14.315-32-32-32-17.664 0-32 14.315-32 32v448.002c0 17.664 14.336 32 32 32h448.002c17.685 0 32-14.336 32-32 0-17.685-14.315-32-32-32h-370.732l521.367-521.388c12.501-12.48 12.501-32.768 0-45.248z" />
<glyph unicode="&#xe928;" glyph-name="arrow_up_right" d="M201.376 137.365c12.501-12.501 32.747-12.501 45.248 0l521.385 521.365v-370.731c0-17.685 14.315-32 32-32 17.664 0 32 14.315 32 32v448c0 17.664-14.336 32-32 32h-447.998c-17.685 0-32-14.336-32-32 0-17.685 14.315-32 32-32h370.729l-521.363-521.387c-12.501-12.48-12.501-32.768 0-45.248z" />
<glyph unicode="&#xe929;" glyph-name="arrow_up" d="M512.055 874.667h-0.235c-8.171 0-16.341-3.115-22.592-9.344l-309.182-309.184c-12.501-12.501-12.501-32.768 0-45.269 6.229-6.251 14.421-9.365 22.613-9.365s16.384 3.115 22.635 9.365l254.697 254.72v-712.469c0-17.557 14.229-31.787 31.787-31.787h0.427c17.557 0 31.787 14.229 31.787 31.787v712.363l254.72-254.699c6.229-6.251 14.421-9.387 22.613-9.387s16.384 3.136 22.635 9.387c12.501 12.501 12.501 32.768 0 45.248l-309.269 309.291c-6.251 6.229-14.443 9.344-22.635 9.344z" />
<glyph unicode="&#xe92a;" glyph-name="ars_payment" d="M663.838 404.275l54.972-42.773c34.24-26.628 37.397-77.252 6.724-107.93l-14.724-14.716c-59.494-59.503-193.318-10.667-305.982 101.969-112.64 112.666-161.472 246.487-101.973 305.986l14.72 14.72c30.677 30.677 81.301 27.52 107.925-6.72l42.775-54.976c14.891-19.157 13.201-46.379-3.947-63.531l-17.007-17.001c-13.077-13.060-14.293-34.005-2.517-48.26 13.12-15.872 27.477-31.723 43.012-47.232 15.505-15.531 31.356-29.862 47.228-43.008 14.255-11.776 35.204-10.556 48.26 2.517l16.998 17.007c17.156 17.148 44.373 18.837 63.535 3.947zM256 832h512c70.677 0 128-57.323 128-128v-512c0-70.677-57.323-128-128-128h-512c-70.677 0-128 57.323-128 128v512c0 70.677 57.323 128 128 128zM832 704c0 35.285-28.715 64-64 64h-512c-35.285 0-64-28.715-64-64v-512c0-35.285 28.715-64 64-64h512c35.285 0 64 28.715 64 64v512z" />
<glyph unicode="&#xe92b;" glyph-name="asleep_fill" d="M749.764 285.291c-156.651 24.064-310.827 177.771-334.91 334.42-10.731 69.76-3.285 136.619 18.153 196.885 12.629 35.541-22.121 69.269-56.83 54.528-171.307-72.811-287.296-250.453-267.264-452.5 19.328-194.88 203.157-377.344 398.185-395.328 171.285-15.808 324.779 66.069 411.115 196.352 20.523 30.976-5.397 71.872-42.091 65.963-40.384-6.528-82.795-6.997-126.357-0.32z" />
<glyph unicode="&#xe92c;" glyph-name="asleep" d="M393.179 874.667c-5.525 0-11.264-1.109-17.003-3.541-171.307-72.832-287.296-250.475-267.264-452.501 19.328-194.901 203.157-377.323 398.185-395.349 14.144-1.301 28.203-1.941 42.069-1.941 154.133 0 289.813 78.784 369.045 198.315 19.179 28.928-2.219 66.539-35.008 66.539-2.304 0-4.672-0.192-7.083-0.576-20.779-3.371-42.112-5.12-63.872-5.12-20.48 0-41.344 1.557-62.485 4.8-156.629 24.064-310.848 177.771-334.932 334.421-10.709 69.76-3.243 136.619 18.174 196.885 10.539 29.675-11.924 58.069-39.828 58.069zM358.683 790.933c-14.165-58.752-16.555-119.403-7.104-180.949 28.501-185.408 202.772-359.424 388.478-387.947 23.957-3.691 48.256-5.547 72.192-5.547 7.979 0 15.979 0.213 23.957 0.619-71.488-83.264-175.744-131.776-287.040-131.776-11.989 0-24.149 0.555-36.181 1.664-164.99 15.253-324.052 173.163-340.372 337.941-14.933 150.485 58.667 292.053 186.069 365.995z" />
<glyph unicode="&#xe92d;" glyph-name="attachment" d="M318.401 853.333c-58.944 0-117.888-24.277-160.555-72.832-75.008-85.376-65.472-216.171 14.869-296.491l44.309-44.331c6.251-6.251 14.443-9.365 22.656-9.365 8.149 0 16.363 3.115 22.613 9.365 12.48 12.501 12.48 32.768 0 45.248l-45.803 45.803c-53.653 53.675-63.061 140.011-16.704 200.085 30.144 38.976 74.389 58.453 118.613 58.453 38.251 0 76.48-14.571 105.6-43.669l381.929-381.909c53.653-53.675 63.083-140.032 16.661-200.085-30.080-38.976-74.347-58.453-118.592-58.453-38.251 0-76.48 14.549-105.579 43.669l-159.957 159.957c-31.508 31.488-36.735 82.645-8.448 117.035 17.152 20.864 41.621 31.275 66.069 31.275 21.867 0 43.712-8.299 60.352-24.939l67.883-67.904c6.251-6.229 14.443-9.344 22.613-9.344 8.192 0 16.405 3.115 22.656 9.344 12.501 12.501 12.501 32.768 0 45.269l-63.467 63.467c-30.613 30.592-71.659 46.635-112.32 46.635-36.16 0.021-71.999-12.651-100.009-39.040-61.589-57.984-62.677-154.965-3.285-214.357l157.481-157.483c43.307-43.328 101.312-66.069 158.912-66.069 49.28 0 98.24 16.619 137.6 51.179 93.547 82.176 96.981 224.789 10.347 311.403l-385.6 385.6c-41.664 41.643-96.233 62.485-150.847 62.485z" />
<glyph unicode="&#xe92e;" glyph-name="badge" d="M773.521 805.15l104.981 0.811c16.917 0.128 23.979-21.589 10.219-31.445l-85.397-61.035 33.195-99.605c5.355-16.043-13.12-29.461-26.731-19.413l-84.459 62.379-84.459-62.379c-13.589-10.048-32.085 3.371-26.731 19.413l33.216 99.605-85.397 61.035c-13.76 9.856-6.699 31.573 10.219 31.445l104.981-0.811 31.659 100.075c5.099 16.149 27.925 16.149 33.045 0l31.659-100.075zM763.051 512.004h0.171c21.355 0 37.312-20.715 30.763-41.024-20.715-64.128-59.989-119.787-111.317-161.067v-299.179c0-19.285-15.787-32.064-32.235-32.064-7.851 0-15.872 2.923-22.4 9.429l-136.064 136.085c-6.251 6.251-14.421 9.387-22.635 9.387-8.192 0-16.384-3.136-22.635-9.387l-136.064-136.085c-6.528-6.507-14.549-9.429-22.4-9.429-16.448 0-32.235 12.779-32.235 32.064v300.032c-73.621 59.52-122.731 148.608-127.573 248.169-8.981 184.277 128.277 338.475 305.792 356.608 18.773 1.92 35.115-13.12 35.115-32v-0.043c0-16.341-12.331-29.952-28.587-31.616-149.781-15.424-264.576-150.507-246.954-307.755 14.293-127.529 118.144-230.505 245.76-243.902 135.829-14.251 254.443 70.336 293.376 190.485 4.203 12.864 16.576 21.291 30.123 21.291zM537.216 169.434l81.451-81.429v181.077c-48.896-23.872-104.341-36.416-162.923-34.133-48.384 1.877-94.272 14.485-135.744 35.008v-181.973l81.451 81.451c18.133 18.155 42.261 28.139 67.882 28.139 25.643 0 49.749-9.984 67.883-28.139z" />
<glyph unicode="&#xe92f;" glyph-name="bag_search" d="M473.088 959.964l9.028-0.378c102.059-6.592 179.221-95.895 179.221-198.168v-14.741h64c70.677 0 128-57.324 128-128.002v-53.334c0-17.664-14.336-32-32-32s-32 14.336-32 32v53.334c0 35.35-28.651 64.001-64 64.001h-64v-53.334c0-17.664-14.336-32-32-32s-32 14.336-32 32v53.334h-256.003v-53.334c0-17.664-14.336-32-32-32s-32 14.336-32 32v53.334h-64c-35.35 0-64.001-28.651-64.001-64.001v-469.341c0-35.349 28.651-64 64.001-64h224.003c17.664 0 32-14.336 32-32s-14.336-32-32-32h-224.003c-70.678 0-128.001 57.323-128.001 128v469.341c0 70.679 57.323 128.002 128.001 128.002h64v21.333c0 110.274 92.95 198.808 204.782 191.576l-9.028 0.378zM682.671 448.004c94.251 0 170.667-76.416 170.667-170.667 0-35.563-10.901-68.565-29.504-95.893l105.472-105.476c12.48-12.501 12.48-32.768 0-45.269-12.501-12.48-32.768-12.48-45.269 0l-105.451 105.493c-27.349-18.624-60.352-29.525-95.915-29.525-94.251 0-170.667 76.42-170.667 170.671s76.416 170.667 170.667 170.667zM682.671 384.004c-58.816 0-106.667-47.851-106.667-106.667s47.851-106.671 106.667-106.671c58.816 0 106.667 47.855 106.667 106.671s-47.851 106.667-106.667 106.667zM486.17 894.924c-78.039 10.027-144.835-50.795-144.835-126.914v-21.333h256.003v16.875c0 65.046-46.656 123.116-111.168 131.372z" />
<glyph unicode="&#xe930;" glyph-name="bank" d="M565.333 686.72c0-29.455-23.876-53.333-53.333-53.333s-53.333 23.878-53.333 53.333c0 29.455 23.876 53.333 53.333 53.333s53.333-23.878 53.333-53.333zM170.667 213.333h-10.667c-17.707 0-32-14.293-32-32s14.293-32 32-32h704c17.707 0 32 14.293 32 32s-14.293 32-32 32h-10.667v298.667h42.667c23.467 0 42.667 19.2 42.667 42.667v28.587c0 21.973-11.307 42.453-30.080 54.187l-359.253 225.28c-11.093 7.893-24.107 11.947-37.333 11.947s-26.027-4.053-37.333-11.947l-359.253-225.28c-18.773-11.733-30.080-32.213-30.080-54.187v-28.587c0-23.467 19.2-42.667 42.667-42.667h42.667v-298.667zM376.96 213.333h-142.293v298.667h142.293v-298.667zM583.253 213.333h-142.293v298.667h142.293v-298.667zM789.547 213.333h-142.293v298.667h142.293v-298.667zM874.667 576h-725.333v7.253l359.467 225.28c0.533 0.32 1.067 0.693 1.6 1.067s1.067 0.747 1.6 1.067c1.067-0.853 2.133-1.493 3.2-2.133l359.467-225.28v-7.253zM117.333 85.333c-17.707 0-32-14.293-32-32s14.293-32 32-32h789.333c17.707 0 32 14.293 32 32s-14.293 32-32 32h-789.333z" />
<glyph unicode="&#xe931;" glyph-name="bankbook" d="M708.779 479.957h48.555c17.685 0 32-14.336 32-32s-14.315-32-32-32h-65.707l-36.48-136.128c-3.84-14.293-16.747-23.659-30.891-23.659-0.158 0-0.311 0.004-0.469 0.009-0.162 0.009-0.329 0.013-0.491 0.013-12.885 0.213-24.875 8.149-29.547 20.971l-81.749 224.576-81.749-224.576c-4.672-12.821-16.661-20.757-29.547-20.971-0.299 0-0.64-0.021-0.96-0.021-14.123 0-27.051 9.365-30.891 23.659l-36.48 136.128h-65.707c-17.664 0-32 14.336-32 32s14.336 32 32 32h48.555l-32.043 119.552c-4.544 17.088 5.568 34.645 22.635 39.189 2.773 0.768 5.568 1.109 8.32 1.109 14.123 0 27.051-9.429 30.891-23.723l59.563-222.336 63.659 174.933c4.736 12.992 17.003 21.056 30.080 21.056 0.102 0 0.213-0.026 0.324-0.052 0.119-0.027 0.239-0.055 0.358-0.055v0.107h25.664v-0.171c0.145 0.010 0.294 0.045 0.444 0.081 0.183 0.044 0.371 0.089 0.559 0.089 13.077 0 25.344-8.064 30.080-21.056l63.659-174.933 59.584 222.336c3.819 14.293 16.747 23.723 30.869 23.723 2.752 0 5.547-0.341 8.32-1.109 17.067-4.544 27.2-22.101 22.635-39.189l-32.043-119.552zM170.667 810.667h682.667c70.4 0 128-57.6 128-128v-469.333c0-70.4-57.6-128-128-128h-682.667c-70.4 0-128 57.6-128 128v469.333c0 70.4 57.6 128 128 128zM917.333 682.667c0 35.285-28.715 64-64 64h-682.667c-35.285 0-64-28.715-64-64v-469.333c0-35.285 28.715-64 64-64h682.667c35.285 0 64 28.715 64 64v469.333z" />
<glyph unicode="&#xe932;" glyph-name="barcode_scan" d="M906.667 320c17.664 0 32-14.336 32-32v-96c0-70.677-57.323-128-128-128h-96c-17.664 0-32 14.336-32 32s14.336 32 32 32h96c35.328 0 64 28.672 64 64v96c0 17.664 14.336 32 32 32zM117.333 320c17.664 0 32-14.336 32-32v-96c0-35.328 28.672-64 64-64h96c17.664 0 32-14.336 32-32s-14.336-32-32-32h-96c-70.677 0-128 57.323-128 128v96c0 17.664 14.336 32 32 32zM309.333 618.667c11.797 0 21.333-9.536 21.333-21.333v-298.667c0-11.797-9.536-21.333-21.333-21.333h-64c-11.797 0-21.333 9.536-21.333 21.333v298.667c0 11.797 9.536 21.333 21.333 21.333h64zM629.333 618.667c11.797 0 21.333-9.536 21.333-21.333v-298.667c0-11.797-9.536-21.333-21.333-21.333h-64c-11.797 0-21.333 9.536-21.333 21.333v298.667c0 11.797 9.536 21.333 21.333 21.333h64zM778.667 618.667c11.797 0 21.333-9.536 21.333-21.333v-298.667c0-11.797-9.536-21.333-21.333-21.333h-64c-11.797 0-21.333 9.536-21.333 21.333v298.667c0 11.797 9.536 21.333 21.333 21.333h64zM405.333 618.667c5.888 0 10.667-4.779 10.667-10.667v-320c0-5.888-4.779-10.667-10.667-10.667h-21.333c-5.888 0-10.667 4.779-10.667 10.667v320c0 5.888 4.779 10.667 10.667 10.667h21.333zM490.667 618.667c5.888 0 10.667-4.779 10.667-10.667v-320c0-5.888-4.779-10.667-10.667-10.667h-21.333c-5.888 0-10.667 4.779-10.667 10.667v320c0 5.888 4.779 10.667 10.667 10.667h21.333zM810.667 832c70.677 0 128-57.323 128-128v-96c0-17.664-14.336-32-32-32s-32 14.336-32 32v96c0 35.328-28.672 64-64 64h-96c-17.664 0-32 14.336-32 32s14.336 32 32 32h96zM309.333 832c17.664 0 32-14.336 32-32s-14.336-32-32-32h-96c-35.328 0-64-28.672-64-64v-96c0-17.664-14.336-32-32-32s-32 14.336-32 32v96c0 70.677 57.323 128 128 128h96z" />
<glyph unicode="&#xe933;" glyph-name="barcode" d="M896 320v-181.333c0-17.664-14.336-32-32-32h-64c-17.664 0-32 14.336-32 32v181.333h128zM512 320v-192c0-11.797-9.536-21.333-21.333-21.333h-21.333c-11.797 0-21.333 9.536-21.333 21.333v192h64zM256 320v-181.333c0-17.664-14.336-32-32-32h-64c-17.664 0-32 14.336-32 32v181.333h128zM384 320v-192c0-11.797-9.536-21.333-21.333-21.333h-21.333c-11.797 0-21.333 9.536-21.333 21.333v192h64zM704 320v-181.333c0-17.664-14.336-32-32-32h-64c-17.664 0-32 14.336-32 32v181.333h128zM960 490.667c11.797 0 21.333-9.536 21.333-21.333v-21.333c0-11.797-9.536-21.333-21.333-21.333h-896c-11.797 0-21.333 9.536-21.333 21.333v21.333c0 11.797 9.536 21.333 21.333 21.333h896zM864 789.333c17.664 0 32-14.336 32-32v-160h-128v160c0 17.664 14.336 32 32 32h64zM490.667 789.333c11.797 0 21.333-9.536 21.333-21.333v-170.667h-64v170.667c0 11.797 9.536 21.333 21.333 21.333h21.333zM224 789.333c17.664 0 32-14.336 32-32v-160h-128v160c0 17.664 14.336 32 32 32h64zM362.667 789.333c11.797 0 21.333-9.536 21.333-21.333v-170.667h-64v170.667c0 11.797 9.536 21.333 21.333 21.333h21.333zM672 789.333c17.664 0 32-14.336 32-32v-160h-128v160c0 17.664 14.336 32 32 32h64z" />
<glyph unicode="&#xe934;" glyph-name="benefits_done_fill" d="M921.6 537.6l-55.467 55.467v78.933c0 70.4-57.6 128-128 128h-78.933l-55.467 55.467c-49.067 49.067-130.133 49.067-181.332 0l-55.467-55.467h-78.933c-70.4 0-128-57.6-128-128v-78.933l-55.467-55.467c-49.067-49.067-49.067-130.134 0-181.334l55.467-55.467v-78.933c0-70.4 57.6-128 128-128h78.933l55.467-55.467c49.066-49.067 130.132-49.067 181.332 0l55.467 55.467h78.933c70.4 0 128 57.6 128 128v78.933l55.467 55.467c51.2 51.2 51.2 132.267 0 181.334zM725.333 541.867l-245.333-243.2c-6.4-6.4-17.067-10.667-27.733-10.667h-4.267c-10.667 0-21.333 4.267-27.732 10.667l-121.6 119.467c-14.933 14.933-14.933 40.533 0 55.467s40.533 14.933 55.467 0l93.866-93.867 219.733 217.6c14.933 14.933 40.533 14.933 55.467 0 17.067-14.933 17.067-40.533 2.133-55.467z" />
<glyph unicode="&#xe935;" glyph-name="benefits_done" d="M446.4 379.733l217.6 217.6c14.933 14.933 40.533 14.933 57.6 0 14.933-14.933 14.933-40.533 0-55.467l-245.333-243.2c-6.4-6.4-17.067-10.667-27.733-10.667h-4.267c-10.667 0-21.335 4.267-27.735 10.667l-119.467 119.467c-14.933 14.933-14.933 40.533 0 55.467s40.533 14.933 55.467 0l93.869-93.867zM862.4 593.067l55.467-55.467c51.2-49.067 51.2-130.133-2.133-179.2l-55.467-55.467v-78.933c0-70.4-57.6-128-128-128h-78.933l-55.467-55.467c-23.467-25.6-57.6-38.4-89.6-38.4s-64 12.8-89.6 38.4l-55.467 55.467h-78.933c-70.4 0-128 57.6-128 128v78.933l-55.467 55.467c-49.067 51.2-49.067 132.267 0 181.333l55.467 55.467v78.933c0 70.4 57.6 128 128 128h78.933l55.467 55.467c23.467 25.6 57.6 38.4 89.6 38.4s66.133-12.8 91.733-40.533l55.467-55.467h78.933c70.4 0 128-57.6 128-128v-78.933zM817.6 347.733l55.467 55.467c12.8 10.667 17.067 29.867 17.067 46.933s-6.4 32-19.2 44.8l-55.467 55.467c-12.8 10.667-19.2 27.733-19.2 44.8v78.933c0 36.267-27.733 64-64 64h-78.933c-17.067 0-32 6.4-44.8 19.2l-55.467 55.467c-10.667 12.8-27.733 19.2-44.8 19.2s-34.133-6.4-44.8-23.467l-55.467-55.467c-10.667-12.8-27.733-19.2-44.8-19.2h-78.933c-36.267 0-64-27.733-64-64v-78.933c0-17.067-6.4-32-19.2-44.8l-55.467-55.467c-25.6-23.467-25.6-64 0-89.6l55.467-55.467c12.8-10.667 19.2-27.733 19.2-44.8v-78.933c0-36.267 27.733-64 64-64h78.933c17.067 0 32-6.4 44.8-19.2l55.467-55.467c10.667-12.8 27.733-19.2 44.8-19.2s34.133 6.4 46.933 21.333l55.467 55.467c10.667 12.8 27.733 19.2 44.8 19.2h78.933c36.267 0 64 27.733 64 64v78.933c0 17.067 6.4 32 19.2 44.8z" />
<glyph unicode="&#xe936;" glyph-name="benefits_fill" d="M661.329 320c-11.776 0-21.333-9.557-21.333-21.333s9.557-21.333 21.333-21.333c11.776 0 21.333 9.557 21.333 21.333s-9.557 21.333-21.333 21.333zM426.662 554.669c0 11.776-9.557 21.333-21.333 21.333s-21.333-9.557-21.333-21.333c0-11.776 9.557-21.333 21.333-21.333s21.333 9.557 21.333 21.333zM887.612 573.421l56.192-56.173c50.027-50.048 50.027-131.115 0-181.163l-56.192-56.171v-79.467c0-70.741-57.323-128.064-128.064-128.064h-79.467l-56.192-56.192c-50.027-50.027-131.093-50.027-181.141 0l-56.172 56.192h-79.467c-70.741 0-128.064 57.323-128.064 128.064v79.467l-56.192 56.171c-50.027 50.048-50.027 131.115 0 181.163l56.192 56.173v79.467c0 70.741 57.323 128.064 128.064 128.064h79.467l56.172 56.192c50.048 50.027 131.115 50.027 181.141 0l56.192-56.192h79.467c70.741 0 128.064-57.323 128.064-128.064v-79.467zM575.996 298.667c0-47.125 38.208-85.333 85.333-85.333s85.333 38.208 85.333 85.333c0 47.125-38.208 85.333-85.333 85.333s-85.333-38.208-85.333-85.333zM367.696 260.416c12.501-12.501 32.768-12.501 45.269 0l286.614 286.637c12.501 12.48 12.501 32.747 0 45.248s-32.747 12.501-45.248 0l-286.636-286.637c-12.501-12.501-12.501-32.747 0-45.248zM405.328 640.002c-47.125 0-85.333-38.208-85.333-85.333 0-47.127 38.208-85.335 85.333-85.335s85.334 38.208 85.334 85.335c0 47.125-38.208 85.333-85.334 85.333z" />
<glyph unicode="&#xe937;" glyph-name="benefits" d="M655.607 622.991c8.192 0 16.384-3.115 22.635-9.365 12.501-12.501 12.501-32.768 0-45.248l-286.615-286.637c-6.251-6.246-14.421-9.361-22.613-9.361-8.213 0-16.405 3.115-22.656 9.361-12.48 12.501-12.48 32.768 0 45.248l286.636 286.637c6.251 6.251 14.443 9.365 22.613 9.365zM469.325 576c0 47.125-38.208 85.333-85.332 85.333-47.126 0-85.333-38.208-85.333-85.333s38.208-85.333 85.333-85.333c47.124 0 85.332 38.208 85.332 85.333zM362.659 576c0 11.776 9.557 21.333 21.333 21.333s21.333-9.557 21.333-21.333c0-11.776-9.557-21.333-21.333-21.333s-21.333 9.557-21.333 21.333zM554.658 320c0 47.125 38.208 85.333 85.333 85.333s85.333-38.208 85.333-85.333c0-47.125-38.208-85.333-85.333-85.333s-85.333 38.208-85.333 85.333zM618.658 320c0-11.776 9.557-21.333 21.333-21.333s21.333 9.557 21.333 21.333c0 11.776-9.557 21.333-21.333 21.333s-21.333-9.557-21.333-21.333zM866.278 594.752l56.192-56.171c50.027-50.048 50.027-131.115 0-181.163l-56.192-56.171v-79.445c0-70.763-57.323-128.085-128.085-128.085h-79.445l-56.192-56.192c-25.003-25.024-57.771-37.525-90.56-37.525-32.768 0-65.557 12.501-90.583 37.525l-56.17 56.192h-79.467c-70.741 0-128.086 57.323-128.086 128.085v79.445l-56.171 56.171c-50.027 50.048-50.027 131.115 0 181.163l56.171 56.171v79.467c0 70.741 57.344 128.064 128.086 128.064h79.467l56.17 56.192c25.025 25.024 57.815 37.525 90.583 37.525 32.789 0 65.557-12.501 90.56-37.525l56.192-56.192h79.445c70.763 0 128.085-57.323 128.085-128.064v-79.467zM821.030 346.496l56.192 56.192c24.981 24.981 24.981 65.643 0 90.624l-56.192 56.192c-11.989 11.989-18.752 28.288-18.752 45.248v79.467c0 35.328-28.736 64.064-64.085 64.064h-79.445c-16.981 0-33.259 6.763-45.248 18.752l-56.192 56.171c-12.096 12.139-28.181 18.795-45.312 18.795s-33.237-6.656-45.333-18.795l-56.172-56.171c-11.989-11.989-28.267-18.752-45.248-18.752h-79.467c-35.328 0-64.085-28.736-64.085-64.064v-79.467c0-16.96-6.742-33.259-18.731-45.248l-56.192-56.192c-24.981-24.981-24.981-65.643 0-90.624l56.192-56.192c11.989-11.989 18.731-28.288 18.731-45.248v-79.445c0-35.349 28.757-64.085 64.085-64.085h79.467c16.981 0 33.259-6.763 45.269-18.752l56.172-56.213c12.075-12.075 28.181-18.752 45.312-18.752s33.216 6.677 45.291 18.752l56.213 56.213c11.989 11.989 28.267 18.752 45.248 18.752h79.445c35.349 0 64.085 28.736 64.085 64.085v79.445c0 16.96 6.763 33.259 18.752 45.248z" />
<glyph unicode="&#xe938;" glyph-name="benifit_2rd" d="M511.987 917.333c22.285 0 44.527-5.718 64.469-17.132l297.741-170.682c39.906-22.85 64.469-65.115 64.469-110.837v-341.344c0-45.743-24.563-87.987-64.469-110.857l-297.741-170.662c-19.942-11.456-42.185-17.152-64.469-17.152-22.238 0-44.501 5.696-64.465 17.152l-297.72 170.662c-39.906 22.869-64.469 65.114-64.469 110.857v341.344c0 45.722 24.563 87.987 64.469 110.837l297.72 170.682c19.964 11.415 42.227 17.132 64.465 17.132zM511.987 853.327c-11.281 0-22.434-2.965-32.23-8.555l-297.72-170.661c-19.878-11.414-32.235-32.643-32.235-55.429v-341.344c0-22.784 12.357-44.036 32.235-55.45l297.72-170.637c9.796-5.615 20.949-8.58 32.23-8.58 11.307 0 22.46 2.965 32.235 8.58l297.741 170.637c19.9 11.413 32.235 32.666 32.235 55.45v341.344c0 22.786-12.335 44.015-32.235 55.429l-297.741 170.661c-9.775 5.59-20.928 8.555-32.235 8.555zM504.533 746.735c109.508 0 188.314-67.121 188.314-159.78 0-56.433-25.702-102.944-96.64-177.082l-131.925-140.023v-5.355h194.547c32.363 0 52.284-17.306 52.284-45.722 0-28.015-19.511-44.89-52.284-44.89h-279.581c-36.489 0-60.149 19.776-60.149 49.839 0 21.013 11.217 38.724 46.052 74.116l154.726 165.564c45.623 48.196 63.889 79.473 63.889 114.058 0 46.98-34.449 78.684-85.466 78.684-42.291 0-73.408-23.063-89.59-66.31-13.281-25.538-27.378-36.654-48.954-36.654-27.786 0-46.869 19.778-46.869 47.365 0 74.118 79.641 146.189 191.646 146.189z" />
<glyph unicode="&#xe939;" glyph-name="benifit_3rd" d="M511.987 917.333c22.285 0 44.527-5.718 64.469-17.153l297.741-170.658c39.906-22.871 64.469-65.114 64.469-110.856v-341.338c0-45.743-24.563-87.983-64.469-110.857l-297.741-170.658c-19.942-11.435-42.185-17.152-64.469-17.152-22.238 0-44.501 5.717-64.465 17.152l-297.72 170.658c-39.906 22.874-64.469 65.114-64.469 110.857v341.338c0 45.742 24.563 87.985 64.469 110.856l297.72 170.658c19.964 11.436 42.227 17.153 64.465 17.153zM511.987 853.329c-11.281 0-22.434-2.965-32.23-8.576l-297.72-170.658c-19.878-11.414-32.235-32.643-32.235-55.428v-341.337c0-22.784 12.357-44.036 32.235-55.428l297.72-170.658c9.796-5.611 20.949-8.576 32.23-8.576 11.307 0 22.46 2.965 32.235 8.576l297.741 170.658c19.9 11.392 32.235 32.644 32.235 55.428v341.337c0 22.786-12.335 44.014-32.235 55.428l-297.741 170.658c-9.775 5.611-20.928 8.576-32.235 8.576zM504.943 740.395c114.5 0 194.957-61.359 194.957-149.088 0-60.934-46.054-116.96-103.279-125.194v-6.997c68.851-6.592 120.687-65.071 120.687-136.307 0-98.419-87.915-167.202-212.77-167.202-112.005 0-197.856 62.596-197.856 130.547 0 25.946 18.653 44.89 43.968 44.89 18.245 0 31.933-8.64 47.277-30.874 24.047-37.909 60.966-58.074 107.426-58.074 62.234 0 102.464 33.37 102.464 84.425s-41.045 85.658-102.033 85.658h-40.657c-24.887 0-43.153 18.522-43.153 44.058 0 24.708 17.835 43.247 43.153 43.247h38.571c51.017 0 88.346 32.917 88.346 78.256 0 45.294-36.489 76.166-89.161 76.166-41.067 0-73.003-18.945-95.006-56.004-12.443-20.588-26.948-29.229-46.439-29.229-26.54 0-45.644 18.519-45.644 45.294 0 65.882 80.908 126.431 189.15 126.431z" />
<glyph unicode="&#xe93a;" glyph-name="benifit_5rd" d="M512.013 917.333c22.259 0 44.501-5.718 64.465-17.153l297.719-170.658c39.906-22.871 64.469-65.114 64.469-110.856v-341.338c0-45.743-24.563-87.983-64.469-110.835l-297.719-170.679c-19.964-11.435-42.206-17.152-64.465-17.152-22.263 0-44.527 5.717-64.469 17.152l-297.741 170.679c-39.906 22.852-64.469 65.092-64.469 110.835v341.338c0 45.742 24.563 87.985 64.469 110.856l297.741 170.658c19.942 11.436 42.206 17.153 64.469 17.153zM512.013 853.329c-11.307 0-22.46-2.965-32.235-8.576l-297.741-170.658c-19.878-11.414-32.235-32.643-32.235-55.428v-341.337c0-22.784 12.357-44.036 32.235-55.428l297.741-170.658c9.775-5.611 20.928-8.576 32.235-8.576 11.281 0 22.434 2.965 32.23 8.576l297.719 170.658c19.9 11.392 32.235 32.644 32.235 55.428v341.337c0 22.786-12.335 44.014-32.235 55.428l-297.719 170.658c-9.796 5.611-20.949 8.576-32.23 8.576zM639.778 735.236c33.178 0 52.672-16.897 52.672-45.699 0-28.845-19.085-44.91-52.672-44.91h-214.467l-11.626-145.354h5.824c19.493 26.347 65.543 44.483 114.068 44.483 107.857 0 182.101-74.14 182.101-182.859 0-119.842-86.69-200.145-215.305-200.145-112.39 0-192.031 63.002-192.031 126.025 0 27.588 17.837 49.412 45.623 49.412 17.428 0 30.709-7.424 44.376-26.773 26.132-38.703 59.331-58.074 101.648-58.074 62.618 0 106.995 43.264 106.995 105.434 0 60.122-42.722 101.321-102.443 101.321-27.785 0-56-10.325-80.456-29.248-24.498-20.591-36.532-25.54-51.855-25.54-34.018 0-57.248 24.303-54.756 62.191l15.344 211.665c2.901 39.128 26.54 58.074 72.162 58.074h234.797z" />
<glyph unicode="&#xe93b;" glyph-name="benifit_relay" d="M447.535 900.185c39.881 22.871 89.050 22.871 128.934 0l297.732-170.657c39.902-22.871 64.465-65.114 64.465-110.856v-341.335c0-45.743-24.563-87.983-64.465-110.835l-297.732-170.675c-39.885-22.895-89.054-22.895-128.934 0l-297.755 170.675c-39.863 22.852-64.468 65.092-64.468 110.835v341.335c0 45.742 24.605 87.985 64.468 110.856l297.755 170.657zM528.61 731.107h-144.749c-58.923 0-84.667-26.327-84.667-84.827v-421.277c0-37.888 20.78-60.143 56.452-60.143 35.264 0 55.571 22.255 55.571 60.143v153.207h102.87l83.354-163.085c18.675-36.25 34.47-48.58 63.889-48.58 31.932 0 55.569 21.423 55.569 51.46 0 11.947-3.695 25.963-9.95 37.082l-82.129 149.47c63.070 26.368 99.968 83.204 99.968 154.421 0 106.269-75.085 172.129-196.177 172.129zM513.673 640.112c61.781 0 98.722-32.535 98.722-89.755 0-57.668-36.51-88.968-99.989-88.968h-101.191v178.723h102.458z" />
<glyph unicode="&#xe93c;" glyph-name="benifit_special" d="M512.004 917.333c22.242 0 44.506-5.718 64.469-17.153l297.737-170.657c39.885-22.871 64.469-65.114 64.469-110.877v-341.317c0-45.739-24.585-87.983-64.469-110.831l-297.737-170.679c-19.964-11.435-42.227-17.152-64.469-17.152-22.285 0-44.527 5.717-64.465 17.152l-297.738 170.679c-39.906 22.848-64.468 65.092-64.468 110.831v341.317c0 45.763 24.562 88.006 64.468 110.877l297.738 170.657c19.938 11.436 42.18 17.153 64.465 17.153zM512.004 853.329c-11.302 0-22.455-2.965-32.235-8.576l-297.734-170.657c-19.899-11.414-32.234-32.664-32.234-55.449v-341.317c0-22.784 12.335-44.032 32.234-55.424l297.734-170.679c9.779-5.589 20.932-8.555 32.235-8.555 11.281 0 22.434 2.965 32.235 8.555l297.737 170.679c19.878 11.392 32.235 32.64 32.235 55.424v341.317c0 22.785-12.356 44.035-32.235 55.449l-297.737 170.657c-9.801 5.611-20.954 8.576-32.235 8.576zM536.956 685.838l47.859-150.155 158.613 1.216c25.57 0.192 36.228-32.387 15.428-47.128l-129.045-91.593 50.18-149.385c8.077-24.085-19.814-44.228-40.401-29.167l-127.582 93.555-127.627-93.555c-20.565-15.061-48.459 5.082-40.378 29.167l50.156 149.385-129.022 91.593c-20.802 14.741-10.143 47.32 15.408 47.128l158.636-1.216 47.855 150.155c7.714 24.194 42.227 24.194 49.92 0z" />
<glyph unicode="&#xe93d;" glyph-name="blog" d="M213.333 832h597.333c47.125 0 85.333-38.208 85.333-85.333v-149.333c0-47.125-38.208-85.333-85.333-85.333h-597.333c-47.125 0-85.333 38.208-85.333 85.333v149.333c0 47.125 38.208 85.333 85.333 85.333zM810.667 576c11.776 0 21.333 9.579 21.333 21.333v149.333c0 11.755-9.557 21.333-21.333 21.333h-597.333c-11.776 0-21.333-9.579-21.333-21.333v-149.333c0-11.755 9.557-21.333 21.333-21.333h597.333zM661.333 384h149.333c47.125 0 85.333-38.208 85.333-85.333v-149.333c0-47.125-38.208-85.333-85.333-85.333h-149.333c-47.125 0-85.333 38.208-85.333 85.333v149.333c0 47.125 38.208 85.333 85.333 85.333zM810.667 128c11.776 0 21.333 9.579 21.333 21.333v149.333c0 11.755-9.557 21.333-21.333 21.333h-149.333c-11.776 0-21.333-9.579-21.333-21.333v-149.333c0-11.755 9.557-21.333 21.333-21.333h149.333zM416 384h-256c-17.664 0-32-14.336-32-32s14.336-32 32-32h256c17.664 0 32 14.336 32 32s-14.336 32-32 32zM160 192h256c17.664 0 32-14.336 32-32s-14.336-32-32-32h-256c-17.664 0-32 14.336-32 32s14.336 32 32 32z" />
<glyph unicode="&#xe93e;" glyph-name="book" d="M42.667 746.667c0 47.147 38.187 85.333 85.333 85.333h256c42.24 0 94.933-25.6 128-71.253 33.067 45.653 85.76 71.253 128 71.253h256c47.147 0 85.333-38.187 85.333-85.333v-407.040c0-70.613-57.387-128-128-128h-181.333c-44.8 0-85.973-15.147-118.613-40.96-12.373-9.6-26.88-14.507-41.387-14.507s-29.013 4.907-41.387 14.507c-32.64 25.6-73.813 40.96-118.613 40.96h-181.333c-70.613 0-128 57.387-128 128v407.040zM106.667 746.667v-407.040c0-35.2 28.8-64 64-64h181.333c45.652 0 89.323-11.75 128-34.214v419.921c0 69.973-62.507 106.667-96 106.667h-256c-11.733 0-21.333-9.6-21.333-21.333zM917.333 746.667c0 11.733-9.6 21.333-21.333 21.333h-256c-33.493 0-96-36.693-96-106.667v-419.972c38.746 22.498 82.317 34.266 128 34.266h181.333c35.2 0 64 28.8 64 64v407.040zM128 128h277.333c17.673 0 32-14.327 32-32s-14.327-32-32-32h-277.333c-17.673 0-32 14.327-32 32s14.327 32 32 32zM618.667 128h277.333c17.673 0 32-14.327 32-32s-14.327-32-32-32h-277.333c-17.673 0-32 14.327-32 32s14.327 32 32 32z" />
<glyph unicode="&#xe93f;" glyph-name="bookmark_fill" d="M481.835 229.585c16.683 16.683 43.648 16.683 60.331 0l217.003-217.003c26.88-26.88 72.832-7.851 72.832 30.165v725.248c0 70.699-57.301 128-128 128h-384c-70.699 0-128-57.301-128-128v-725.248c0-38.016 45.952-57.045 72.832-30.165l217.003 217.003z" />
<glyph unicode="&#xe940;" glyph-name="bookmark" d="M768 94.251l-180.565 180.565c-20.139 20.139-46.933 31.232-75.435 31.232s-55.253-11.093-75.435-31.232l-180.565-180.565v673.749c0 35.285 28.715 64 64 64h384c35.285 0 64-28.715 64-64v-673.749zM704 896h-384c-70.656 0-128-57.344-128-128v-725.291c0-25.685 21.035-42.709 43.008-42.709 10.453 0 21.163 3.883 29.824 12.544l217.003 217.003c8.32 8.363 19.243 12.501 30.165 12.501s21.845-4.139 30.165-12.501l217.003-217.003c8.661-8.661 19.371-12.544 29.824-12.544 21.973 0 43.008 17.024 43.008 42.709v725.291c0 70.656-57.344 128-128 128z" />
<glyph unicode="&#xe941;" glyph-name="branch" d="M853.333 128c-35.285 0-64 28.715-64 64s28.715 64 64 64c35.285 0 64-28.715 64-64s-28.715-64-64-64zM170.667 554.667c-35.285 0-64 28.715-64 64s28.715 64 64 64c35.285 0 64-28.715 64-64s-28.715-64-64-64zM853.333 682.667c35.285 0 64-28.715 64-64s-28.715-64-64-64c-35.285 0-64 28.715-64 64s28.715 64 64 64zM853.333 320c-59.499 0-109.355-40.64-123.712-95.637h-143.424c-52.949 0-96 43.051-96 96v170.304c0 36.032-12.139 69.227-32.32 96h271.637c14.229-55.168 64.192-96 123.819-96 70.677 0 128 57.323 128 128s-57.323 128-128 128c-59.627 0-109.589-40.832-123.819-96h-435.029c-14.229 55.168-64.192 96-123.819 96-70.677 0-128-57.323-128-128s57.323-128 128-128c59.627 0 109.589 40.832 123.819 96h35.712c52.928 0 96-43.072 96-96v-170.304c0-88.235 71.765-160 160-160h143.232c14.123-55.36 64.149-96.363 123.904-96.363 70.677 0 128 57.323 128 128s-57.323 128-128 128z" />
<glyph unicode="&#xe942;" glyph-name="brandshop" d="M576 416c40.533 8.533 72.533 42.667 72.533 85.333 0 59.733-44.8 96-117.333 96h-128c-25.6 0-40.533-14.933-40.533-42.667v-298.667c0-25.6 14.933-42.667 40.533-42.667h130.133c81.067 0 132.267 42.667 132.267 110.933 0 49.067-38.4 87.467-89.6 91.733zM443.733 537.6h66.133c38.4 0 59.733-17.067 59.733-49.067s-23.467-51.2-68.267-51.2h-57.6v100.267zM512 273.067h-68.267v110.933h68.267c46.933 0 72.533-19.2 72.533-55.467s-25.6-55.467-72.533-55.467zM838.4 674.133l-279.467 185.6c-14.933 10.667-29.867 14.933-46.933 14.933s-32-4.267-46.933-14.933l-279.467-185.6c-36.267-23.467-57.6-64-57.6-106.667v-375.467c0-70.4 57.6-128 128-128h512c70.4 0 128 57.6 128 128v375.467c0 42.667-21.333 83.2-57.6 106.667zM832 192c0-36.267-27.733-64-64-64h-512c-36.267 0-64 27.733-64 64v375.467c0 21.333 10.667 40.533 27.733 53.333l279.467 185.6c6.4 4.267 10.667 4.267 12.8 4.267s6.4 0 12.8-4.267l279.467-185.6c17.067-12.8 27.733-32 27.733-53.333v-375.467z" />
<glyph unicode="&#xe943;" glyph-name="brightness_contrast" d="M512 789.333c17.664 0 32 14.336 32 32v64c0 17.664-14.336 32-32 32s-32-14.336-32-32v-64c0-17.664 14.336-32 32-32zM512 704c-141.376 0-256-114.624-256-256s114.624-256 256-256c141.376 0 256 114.624 256 256s-114.624 256-256 256zM320 448c0 105.877 86.123 192 192 192v-384c-105.877 0-192 86.123-192 192zM270.645 689.355c-12.501-12.48-32.768-12.48-45.269 0l-45.248 45.269c-12.501 12.48-12.501 32.747 0 45.248s32.768 12.501 45.248 0l45.269-45.248c12.501-12.501 12.501-32.768 0-45.269zM138.667 480h-64c-17.664 0-32-14.336-32-32s14.336-32 32-32h64c17.664 0 32 14.336 32 32s-14.336 32-32 32zM180.128 161.374l45.248 45.274c12.501 12.497 32.768 12.497 45.269 0 12.501-12.506 12.501-32.772 0-45.274l-45.269-45.244c-12.48-12.506-32.747-12.506-45.248 0-12.501 12.497-12.501 32.764 0 45.244zM512 106.667c-17.664 0-32-14.336-32-32v-64c0-17.664 14.336-32 32-32s32 14.336 32 32v64c0 17.664-14.336 32-32 32zM753.353 206.647c12.501 12.497 32.768 12.497 45.269 0l45.248-45.274c12.501-12.48 12.501-32.747 0-45.244-12.501-12.506-32.764-12.506-45.248 0l-45.269 45.244c-12.48 12.501-12.48 32.768 0 45.274zM949.333 480h-64c-17.664 0-32-14.336-32-32s14.336-32 32-32h64c17.664 0 32 14.336 32 32s-14.336 32-32 32zM753.353 734.626l45.269 45.248c12.484 12.501 32.747 12.501 45.248 0s12.501-32.768 0-45.248l-45.248-45.269c-12.501-12.48-32.768-12.48-45.269 0-12.48 12.501-12.48 32.768 0 45.269z" />
<glyph unicode="&#xe944;" glyph-name="broadcast_notification" d="M213.333 128h74.667c17.664 0 32-14.336 32-32s-14.336-32-32-32h-74.667c-70.4 0-128 57.6-128 128v512c0 70.4 57.6 128 128 128h42.667v49.792c0 19.627 14.336 35.541 32 35.541s32-15.915 32-35.541v-49.792h298.667v49.792c0 19.627 14.336 35.541 32 35.541s32-15.915 32-35.541v-49.792h42.667c70.4 0 128-57.6 128-128v-96c0-17.664-14.336-32-32-32h-672v-384c0-35.328 28.672-64 64-64zM213.333 768c-35.328 0-64-28.672-64-64v-64h640v64c0 35.328-28.672 64-64 64h-42.667v-28.459c0-19.627-14.336-35.541-32-35.541s-32 15.915-32 35.541v28.459h-298.667v-28.459c0-19.627-14.336-35.541-32-35.541s-32 15.915-32 35.541v28.459h-42.667zM880.649 199.582l37.568-37.568c13.099-13.099 20.459-30.848 20.459-49.344v-5.995c0-25.707-20.843-46.549-46.549-46.549h-104.576c0-44.992-36.459-81.451-81.451-81.451-0.166 0-0.333 0.026-0.503 0.051-0.179 0.026-0.367 0.055-0.563 0.055-0.341 0-0.661-0.107-1.024-0.107-4.8 0-9.429 0.619-13.931 1.621-37.291 7.424-65.429 40.32-65.429 79.829h-104.896c-25.707 0-46.549 20.843-46.549 46.549v5.995c0 18.496 7.36 36.245 20.459 49.344l37.888 37.909v81.28c0 85.419 61.376 156.395 142.379 171.499v5.973c0 17.664 14.315 32 32 32h0.171l0.171-0.043c17.515-0.171 31.659-14.4 31.659-31.957v-5.931c81.195-14.955 142.72-86.016 142.72-171.541v-81.621zM576.819 154.675l-30.549-30.549h319.339l-30.208 30.208c-12.032 12.011-18.752 28.288-18.752 45.248v81.621c0 57.088-42.731 104.363-99.413 109.995-3.819 0.384-7.552 1.088-11.136 2.091-3.605-1.003-7.317-1.707-11.136-2.091-56.683-5.632-99.413-52.907-99.413-109.995v-81.28c0-16.96-6.741-33.259-18.731-45.248z" />
<glyph unicode="&#xe945;" glyph-name="building" d="M437.333 618.667h-64c-17.707 0-32-14.293-32-32s14.293-32 32-32h64c17.707 0 32 14.293 32 32s-14.293 32-32 32zM437.333 490.667h-64c-17.707 0-32-14.293-32-32s14.293-32 32-32h64c17.707 0 32 14.293 32 32s-14.293 32-32 32zM373.333 362.667h64c17.707 0 32-14.293 32-32s-14.293-32-32-32h-64c-17.707 0-32 14.293-32 32s14.293 32 32 32zM650.667 618.667h-64c-17.707 0-32-14.293-32-32s14.293-32 32-32h64c17.707 0 32 14.293 32 32s-14.293 32-32 32zM586.667 490.667h64c17.707 0 32-14.293 32-32s-14.293-32-32-32h-64c-17.707 0-32 14.293-32 32s14.293 32 32 32zM650.667 362.667h-64c-17.707 0-32-14.293-32-32s14.293-32 32-32h64c17.707 0 32 14.293 32 32s-14.293 32-32 32zM832 42.667h32c17.707 0 32-14.293 32-32s-14.293-32-32-32h-704c-17.707 0-32 14.293-32 32s14.293 32 32 32h32v661.333c0 47.147 38.187 85.333 85.333 85.333h21.333v64c0 35.413 28.587 64 64 64h298.667c35.413 0 64-28.587 64-64v-64h21.333c47.147 0 85.333-38.187 85.333-85.333v-661.333zM661.333 853.333h-298.667v-64h298.667v64zM469.333 42.667h85.333v85.333h-85.333v-85.333zM618.667 42.667h149.333v661.333c0 11.733-9.6 21.333-21.333 21.333h-469.333c-11.733 0-21.333-9.6-21.333-21.333v-661.333h149.333v85.333c0 35.413 28.587 64 64 64h85.333c35.413 0 64-28.587 64-64v-85.333z" />
<glyph unicode="&#xe946;" glyph-name="bus_fill" d="M853.333 448c0-23.552-19.093-42.667-42.667-42.667h-597.333c-23.552 0-42.667 19.115-42.667 42.667v277.333c0 23.552 19.115 42.667 42.667 42.667h597.333c23.573 0 42.667-19.115 42.667-42.667v-277.333zM746.667 213.333c-35.328 0-64 28.672-64 64s28.672 64 64 64c35.349 0 64-28.672 64-64s-28.651-64-64-64zM586.667 192h-149.333c-17.664 0-32 14.336-32 32s14.336 32 32 32h149.333c17.664 0 32-14.336 32-32s-14.336-32-32-32zM277.333 213.333c-35.328 0-64 28.672-64 64s28.672 64 64 64c35.349 0 64-28.672 64-64s-28.651-64-64-64zM949.333 682.667h-32v128c0 58.923-181.483 106.667-405.333 106.667s-405.333-47.744-405.333-106.667v-128h-32c-17.6 0-32-14.4-32-32v-149.333c0-17.664 14.336-32 32-32h32v-426.667c0-35.328 28.672-64 64-64h42.667c35.328 0 64 28.672 64 64v42.667h469.333v-42.667c0-35.328 28.672-64 64-64h42.667c35.328 0 64 28.672 64 64v426.667h32c17.6 0 32 14.4 32 32v149.333c0 17.6-14.4 32-32 32z" />
<glyph unicode="&#xe947;" glyph-name="bus" d="M234.667 298.667c0 35.328 28.672 64 64 64s64-28.672 64-64c0-35.328-28.672-64-64-64s-64 28.672-64 64zM725.333 362.667c-35.328 0-64-28.672-64-64s28.672-64 64-64c35.328 0 64 28.672 64 64s-28.672 64-64 64zM405.333 245.333c0 17.664 14.336 32 32 32h149.333c17.664 0 32-14.336 32-32s-14.336-32-32-32h-149.333c-17.664 0-32 14.336-32 32zM917.333 682.667h32c17.6 0 32-14.4 32-32v-149.333c0-17.6-14.4-32-32-32h-32v-426.667c0-35.328-28.672-64-64-64h-85.333c-35.328 0-64 28.672-64 64v64h-384v-64c0-35.328-28.672-64-64-64h-85.333c-35.328 0-64 28.672-64 64v426.667h-32c-17.664 0-32 14.336-32 32v149.333c0 17.6 14.4 32 32 32h32v128c0 58.923 181.483 106.667 405.333 106.667s405.333-47.744 405.333-106.667v-128zM192 170.667h640c11.797 0 21.333 9.536 21.333 21.333v213.333h-682.667v-213.333c0-11.797 9.536-21.333 21.333-21.333zM853.333 42.667h-85.333v64h85.333v-64zM256 42.667h-85.333v64h85.333v-64zM841.771 803.669c-43.733 21.248-159.104 49.664-329.771 49.664s-286.037-28.416-329.771-49.664c-7.253-3.52-11.563-10.987-11.563-19.029v-16.64h682.667v16.64c0 8.043-4.309 15.509-11.563 19.029zM192 469.333h640c11.797 0 21.333 9.536 21.333 21.333v192c0 11.797-9.536 21.333-21.333 21.333h-640c-11.797 0-21.333-9.536-21.333-21.333v-192c0-11.797 9.536-21.333 21.333-21.333z" />
<glyph unicode="&#xe948;" glyph-name="cached" d="M949.099 448h53.504c17.301 0 27.413-20.181 17.493-34.88l-85.269-126.357c-8.363-12.395-26.624-12.395-34.987 0l-85.269 126.357c-9.899 14.699 0.213 34.88 17.493 34.88h52.864c0 122.027-61.035 244.053-183.104 315.797-28.053 16.491-58.603 28.779-90.283 36.309-128.768 30.571-256.318-6.443-345.534-95.659-4.864-4.843-9.472-9.835-13.931-14.933-9.984-11.435-26.496-14.464-39.765-7.061-17.515 9.813-22.080 33.408-8.939 48.555 5.547 6.379 11.307 12.608 17.387 18.688 83.307 83.307 192.491 124.971 301.673 124.971 109.205 0 218.389-41.664 301.717-124.971 83.307-83.328 124.949-192.512 124.949-301.696zM796.169 210.389c9.92 11.691 26.603 14.805 39.979 7.322 17.451-9.771 22.016-33.173 9.088-48.448-6.656-7.851-13.675-15.531-21.077-22.976-83.328-83.311-192.512-124.954-301.717-124.954-109.184 0-218.368 41.643-301.696 124.954-83.307 83.324-124.843 192.529-124.864 301.713h-53.141c-17.28 0-27.414 20.186-17.515 34.884l85.291 126.334c8.363 12.395 26.603 12.395 34.987 0l85.269-126.334c9.92-14.699-0.213-34.884-17.494-34.884h-53.205c0-122.219 60.992-244.39 183.509-316.070 28.138-16.495 58.773-28.736 90.518-36.228 128.512-30.251 255.744 6.805 344.789 95.851 6.101 6.101 11.819 12.378 17.28 18.837z" />
<glyph unicode="&#xe949;" glyph-name="calculate_fill" d="M757.333 576h-170.667c-17.664 0-32 14.336-32 32s14.336 32 32 32h170.667c17.664 0 32-14.336 32-32s-14.336-32-32-32zM757.333 320h-170.667c-17.664 0-32 14.336-32 32s14.336 32 32 32h170.667c17.664 0 32-14.336 32-32s-14.336-32-32-32zM757.333 192h-170.667c-17.664 0-32 14.336-32 32s14.336 32 32 32h170.667c17.664 0 32-14.336 32-32s-14.336-32-32-32zM437.333 576h-53.333v-53.333c0-17.664-14.336-32-32-32s-32 14.336-32 32v53.333h-53.333c-17.664 0-32 14.336-32 32s14.336 32 32 32h53.333v53.333c0 17.664 14.336 32 32 32s32-14.336 32-32v-53.333h53.333c17.664 0 32-14.336 32-32s-14.336-32-32-32zM438.699 246.635c12.48-12.501 12.48-32.768 0-45.269-6.251-6.251-14.443-9.365-22.635-9.365s-16.384 3.115-22.635 9.365l-41.429 41.451-41.429-41.451c-6.251-6.251-14.443-9.365-22.635-9.365s-16.384 3.115-22.635 9.365c-12.48 12.501-12.48 32.768 0 45.269l41.451 41.429-41.451 41.429c-12.48 12.501-12.48 32.768 0 45.269 6.251 6.251 14.443 9.387 22.635 9.387s16.384-3.136 22.635-9.387l41.429-41.429 41.429 41.429c6.251 6.251 14.443 9.387 22.635 9.387s16.384-3.136 22.635-9.387c12.48-12.501 12.48-32.768 0-45.269l-41.451-41.429 41.451-41.429zM810.667 874.667h-597.333c-70.4 0-128-57.6-128-128v-597.333c0-70.4 57.6-128 128-128h597.333c70.4 0 128 57.6 128 128v597.333c0 70.4-57.6 128-128 128z" />
<glyph unicode="&#xe94a;" glyph-name="calculate" d="M384 640h53.333c17.664 0 32-14.336 32-32s-14.336-32-32-32h-53.333v-53.333c0-17.664-14.336-32-32-32s-32 14.336-32 32v53.333h-53.333c-17.664 0-32 14.336-32 32s14.336 32 32 32h53.333v53.333c0 17.664 14.336 32 32 32s32-14.336 32-32v-53.333zM438.707 374.771c-6.251 6.251-14.462 9.365-22.654 9.365-8.171 0-16.363-3.115-22.613-9.365l-41.429-41.429-41.451 41.429c-6.251 6.251-14.443 9.365-22.613 9.365-8.192 0-16.405-3.115-22.656-9.365-12.48-12.501-12.48-32.768 0-45.269l41.451-41.429-41.451-41.451c-12.48-12.501-12.48-32.747 0-45.248 6.251-6.251 14.464-9.365 22.656-9.365 8.171 0 16.363 3.115 22.613 9.365l41.451 41.429 41.429-41.429c6.251-6.251 14.443-9.365 22.613-9.365 8.192 0 16.403 3.115 22.654 9.365 12.48 12.501 12.48 32.747 0 45.248l-41.449 41.451 41.449 41.429c12.48 12.501 12.48 32.768 0 45.269zM586.667 640h170.667c17.664 0 32-14.336 32-32s-14.336-32-32-32h-170.667c-17.664 0-32 14.336-32 32s14.336 32 32 32zM757.333 384h-170.667c-17.664 0-32-14.336-32-32s14.336-32 32-32h170.667c17.664 0 32 14.336 32 32s-14.336 32-32 32zM586.667 256h170.667c17.664 0 32-14.336 32-32s-14.336-32-32-32h-170.667c-17.664 0-32 14.336-32 32s14.336 32 32 32zM213.333 874.667h597.333c70.4 0 128-57.6 128-128v-597.333c0-70.4-57.6-128-128-128h-597.333c-70.4 0-128 57.6-128 128v597.333c0 70.4 57.6 128 128 128zM810.667 85.333c35.285 0 64 28.715 64 64v597.333c0 35.285-28.715 64-64 64h-597.333c-35.285 0-64-28.715-64-64v-597.333c0-35.285 28.715-64 64-64h597.333z" />
<glyph unicode="&#xe94b;" glyph-name="calculator" d="M704 768h-384c-23.552 0-42.667-19.115-42.667-42.667v-85.333c0-23.552 19.115-42.667 42.667-42.667h384c23.552 0 42.667 19.115 42.667 42.667v85.333c0 23.552-19.115 42.667-42.667 42.667zM320 512c-23.552 0-42.667-19.115-42.667-42.667s19.115-42.667 42.667-42.667c23.552 0 42.667 19.115 42.667 42.667s-19.115 42.667-42.667 42.667zM512 512c-23.552 0-42.667-19.115-42.667-42.667s19.115-42.667 42.667-42.667c23.552 0 42.667 19.115 42.667 42.667s-19.115 42.667-42.667 42.667zM661.333 469.333c0 23.552 19.115 42.667 42.667 42.667s42.667-19.115 42.667-42.667c0-23.552-19.115-42.667-42.667-42.667s-42.667 19.115-42.667 42.667zM320 362.667c-23.552 0-42.667-19.115-42.667-42.667s19.115-42.667 42.667-42.667c23.552 0 42.667 19.115 42.667 42.667s-19.115 42.667-42.667 42.667zM469.333 320c0 23.552 19.115 42.667 42.667 42.667s42.667-19.115 42.667-42.667c0-23.552-19.115-42.667-42.667-42.667s-42.667 19.115-42.667 42.667zM704 362.667c-23.552 0-42.667-19.115-42.667-42.667s19.115-42.667 42.667-42.667c23.552 0 42.667 19.115 42.667 42.667s-19.115 42.667-42.667 42.667zM277.333 170.667c0 23.552 19.115 42.667 42.667 42.667s42.667-19.115 42.667-42.667c0-23.552-19.115-42.667-42.667-42.667s-42.667 19.115-42.667 42.667zM512 213.333c-23.552 0-42.667-19.115-42.667-42.667s19.115-42.667 42.667-42.667c23.552 0 42.667 19.115 42.667 42.667s-19.115 42.667-42.667 42.667zM661.333 170.667c0 23.552 19.115 42.667 42.667 42.667s42.667-19.115 42.667-42.667c0-23.552-19.115-42.667-42.667-42.667s-42.667 19.115-42.667 42.667zM277.333 917.333h469.333c70.677 0 128-57.323 128-128v-682.667c0-70.677-57.323-128-128-128h-469.333c-70.677 0-128 57.323-128 128v682.667c0 70.677 57.323 128 128 128zM746.667 42.667c35.285 0 64 28.715 64 64v682.667c0 35.285-28.715 64-64 64h-469.333c-35.285 0-64-28.715-64-64v-682.667c0-35.285 28.715-64 64-64h469.333z" />
<glyph unicode="&#xe94c;" glyph-name="calendar_check_fill" d="M725.333 789.333h42.667c70.4 0 128-57.6 128-128v-64.768h-768v64.768c0 70.4 57.6 128 128 128h42.667v53.333c0 17.664 14.336 32 32 32 17.685 0 32-14.336 32-32v-53.333h298.667v53.333c0 17.664 14.336 32 32 32 17.685 0 32-14.336 32-32v-53.333zM661.333 693.333c0-17.664 14.336-32 32-32 17.685 0 32 14.336 32 32s-14.315 32-32 32c-17.664 0-32-14.336-32-32zM298.667 693.333c0-17.664 14.336-32 32-32 17.685 0 32 14.336 32 32s-14.315 32-32 32c-17.664 0-32-14.336-32-32zM128.004 149.342v383.211h768v-383.211c0-70.396-57.6-128-128-128h-512c-70.4 0-128 57.604-128 128zM461.892 137.161l256.192 256.213c12.501 12.501 12.501 32.747 0 45.248-6.251 6.251-14.443 9.387-22.635 9.387-8.171 0-16.384-3.136-22.613-9.387l-233.6-233.579-88.064 88.043c-6.251 6.251-14.443 9.365-22.656 9.365-8.171 0-16.363-3.115-22.613-9.365-12.48-12.497-12.48-32.747 0-45.248l110.656-110.677c-0.006 0.004 0.012 0 0 0 0.005 0 0.033-0.009 0.043-0.021 6.251-6.251 14.421-9.361 22.635-9.361 8.192 0 16.363 3.11 22.613 9.361 0.021 0.021 0.021 0.021 0.043 0.021z" />
<glyph unicode="&#xe94d;" glyph-name="calendar_check" d="M417.894 158.724l-110.674 110.682c-12.48 12.48-12.48 32.768 0 45.269 6.229 6.251 14.443 9.365 22.613 9.365 8.213 0 16.405-3.115 22.656-9.365l88.045-88.085 233.621 233.621c6.229 6.251 14.417 9.344 22.613 9.344 8.192 0 16.384-3.093 22.635-9.344 12.501-12.501 12.501-32.768 0-45.269l-256.192-256.192c0.004 0.009-0.009-0.009 0 0-0.009-0.013-0.030-0.043-0.043-0.043-6.251-6.251-14.421-9.365-22.635-9.365-8.196 0-16.389 3.132-22.64 9.382zM725.333 789.331h42.667c70.4 0 128-57.6 128-128v-512.002c0-70.4-57.6-128-128-128h-512c-70.4 0-128 57.6-128 128v512.002c0 70.4 57.6 128 128 128h42.667v53.333c0 17.664 14.336 32 32 32s32-14.336 32-32v-53.333h298.667v53.333c0 17.664 14.336 32 32 32s32-14.336 32-32v-53.333zM192 596.563h640v64.768c0 35.285-28.715 64-64 64h-42.667v-32c0-17.664-14.336-32-32-32s-32 14.336-32 32v32h-298.667v-32c0-17.664-14.336-32-32-32s-32 14.336-32 32v32h-42.667c-35.285 0-64-28.715-64-64v-64.768zM768 85.329c35.285 0 64 28.715 64 64v383.232h-640v-383.232c0-35.285 28.715-64 64-64h512z" />
<glyph unicode="&#xe94e;" glyph-name="calendar_fill" d="M725.333 789.333h42.667c70.4 0 128-57.6 128-128v-64.768h-768v64.768c0 70.4 57.6 128 128 128h42.667v53.333c0 17.664 14.336 32 32 32s32-14.336 32-32v-53.333h298.667v53.333c0 17.664 14.336 32 32 32s32-14.336 32-32v-53.333zM661.333 693.333c0-17.664 14.336-32 32-32s32 14.336 32 32c0 17.664-14.336 32-32 32s-32-14.336-32-32zM298.667 693.333c0-17.664 14.336-32 32-32s32 14.336 32 32c0 17.664-14.336 32-32 32s-32-14.336-32-32zM256 21.333c-70.4 0-128 57.6-128 128v383.232h768v-383.232c0-70.4-57.6-128-128-128h-512z" />
<glyph unicode="&#xe94f;" glyph-name="calendar_today" d="M320 234.667h128c23.552 0 42.667 19.115 42.667 42.667v128c0 23.552-19.115 42.667-42.667 42.667h-128c-23.552 0-42.667-19.115-42.667-42.667v-128c0-23.552 19.115-42.667 42.667-42.667zM725.338 789.333h42.667c70.4 0 128-57.6 128-128v-512c0-70.4-57.6-128-128-128h-512c-70.4 0-128 57.6-128 128v512c0 70.4 57.6 128 128 128h42.667v53.333c0 17.664 14.336 32 32 32s32-14.336 32-32v-53.333h298.667v53.333c0 17.664 14.336 32 32 32s32-14.336 32-32v-53.333zM188.633 597.333h646.742v64c0 37.141-30.229 67.371-67.371 67.371h-42.667v-14.037c0-17.664-14.336-32-32-32s-32 14.336-32 32v14.037h-298.667v-14.037c0-17.664-14.336-32-32-32s-32 14.336-32 32v14.037h-42.667c-37.141 0-67.371-30.229-67.371-67.371v-64zM768.004 81.963c37.141 0 67.371 30.229 67.371 67.371v384h-646.742v-384c0-37.141 30.229-67.371 67.371-67.371h512z" />
<glyph unicode="&#xe950;" glyph-name="calendar" d="M768 789.333h-42.667v53.333c0 17.707-14.293 32-32 32s-32-14.293-32-32v-53.333h-298.667v53.333c0 17.707-14.293 32-32 32s-32-14.293-32-32v-53.333h-42.667c-70.4 0-128-57.6-128-128v-512c0-70.4 57.6-128 128-128h512c70.4 0 128 57.6 128 128v512c0 70.4-57.6 128-128 128zM832 149.333c0-35.2-28.8-64-64-64h-512c-35.2 0-64 28.8-64 64v383.147h640v-383.147zM832 596.48h-640v64.853c0 35.2 28.8 64 64 64h42.667v-32c0-17.707 14.293-32 32-32s32 14.293 32 32v32h298.667v-32c0-17.707 14.293-32 32-32s32 14.293 32 32v32h42.667c35.2 0 64-28.8 64-64v-64.853z" />
<glyph unicode="&#xe951;" glyph-name="camera_fill" d="M362.667 405.333c0 82.325 67.008 149.333 149.333 149.333s149.333-67.008 149.333-149.333c0-82.325-67.008-149.333-149.333-149.333s-149.333 67.008-149.333 149.333zM737.515 734.485h115.819c70.677 0 128-57.323 128-128v-414.485c0-70.677-57.323-128-128-128h-682.667c-70.677 0-128 57.323-128 128v414.485c0 70.677 57.323 128 128 128h128l59.84 68.373c16.192 18.517 39.616 29.141 64.192 29.141h181.973c22.613 0 44.331-9.003 60.331-25.003l72.512-72.512zM746.667 554.667c0-23.552 19.115-42.667 42.667-42.667s42.667 19.115 42.667 42.667c0 23.552-19.115 42.667-42.667 42.667s-42.667-19.115-42.667-42.667zM298.667 405.333c0-117.824 95.531-213.333 213.333-213.333s213.333 95.509 213.333 213.333c0 117.824-95.531 213.333-213.333 213.333s-213.333-95.509-213.333-213.333z" />
<glyph unicode="&#xe952;" glyph-name="camera" d="M512.004 618.667c-117.824 0-213.333-95.509-213.333-213.333s95.509-213.333 213.333-213.333c117.824 0 213.333 95.509 213.333 213.333s-95.509 213.333-213.333 213.333zM512.004 554.667c82.325 0 149.333-67.008 149.333-149.333s-67.008-149.333-149.333-149.333c-82.325 0-149.333 67.008-149.333 149.333s67.008 149.333 149.333 149.333zM789.338 512c23.552 0 42.667 19.115 42.667 42.667s-19.115 42.667-42.667 42.667c-23.552 0-42.667-19.115-42.667-42.667s19.115-42.667 42.667-42.667zM604.672 832h-181.952c-24.597 0-48-10.624-64.213-29.141l-59.84-68.373h-128c-70.677 0-128-57.323-128-128v-414.485c0-70.677 57.323-128 128-128h682.667c70.699 0 128 57.323 128 128v414.485c0 70.677-57.301 128-128 128h-115.797l-72.533 72.512c-16 16-37.696 25.003-60.331 25.003zM604.672 768c5.611 0 11.115-2.283 15.083-6.251l72.512-72.512c12.011-12.032 28.288-18.752 45.269-18.752h115.797c35.307 0 64-28.715 64-64v-414.485c0-35.285-28.693-64-64-64h-682.667c-35.285 0-64 28.715-64 64v414.485c0 35.285 28.715 64 64 64h128c18.453 0 36.011 7.979 48.171 21.845l59.84 68.373c4.032 4.629 9.92 7.296 16.043 7.296h181.952z" />
<glyph unicode="&#xe953;" glyph-name="car_fill" d="M792.704 554.667h-561.408c-15.083 0-25.429 15.253-19.819 29.248l57.536 143.851c9.728 24.299 33.259 40.235 59.413 40.235h367.125c26.176 0 49.685-15.915 59.413-40.213l57.557-143.872c5.589-13.995-4.715-29.248-19.819-29.248zM746.667 320c-35.328 0-64 28.672-64 64s28.672 64 64 64c35.328 0 64-28.672 64-64s-28.672-64-64-64zM586.667 298.667h-149.333c-17.664 0-32 14.336-32 32s14.336 32 32 32h149.333c17.664 0 32-14.336 32-32s-14.336-32-32-32zM277.333 320c-35.328 0-64 28.672-64 64s28.672 64 64 64c35.328 0 64-28.672 64-64s-28.672-64-64-64zM928 618.667h-60.459l-53.12 132.885c-19.477 48.576-66.517 80.448-118.869 80.448h-367.125c-52.352 0-99.392-31.872-118.848-80.448l-53.12-132.885h-60.459c-17.664 0-32-14.336-32-32s14.336-32 32-32h34.837l-8.917-22.293c-10.091-25.216-15.253-52.096-15.253-79.253v-325.12c0-35.328 28.672-64 64-64h42.667c35.328 0 64 28.672 64 64v42.667h469.333v-42.667c0-35.328 28.672-64 64-64h42.667c35.328 0 64 28.672 64 64v325.12c0 27.157-5.163 54.037-15.253 79.253l-8.917 22.293h34.837c17.664 0 32 14.336 32 32s-14.336 32-32 32z" />
<glyph unicode="&#xe954;" glyph-name="car" d="M234.667 384c0 35.328 28.672 64 64 64s64-28.672 64-64c0-35.328-28.672-64-64-64s-64 28.672-64 64zM725.333 448c-35.328 0-64-28.672-64-64s28.672-64 64-64c35.328 0 64 28.672 64 64s-28.672 64-64 64zM437.333 362.667h149.333c17.664 0 32-14.336 32-32s-14.336-32-32-32h-149.333c-17.664 0-32 14.336-32 32s14.336 32 32 32zM867.541 618.667h60.459c17.664 0 32-14.336 32-32s-14.336-32-32-32h-34.837l8.917-22.293c10.091-25.216 15.253-52.096 15.253-79.253v-325.12c0-35.328-28.672-64-64-64h-85.333c-35.328 0-64 28.672-64 64v64h-384v-64c0-35.328-28.672-64-64-64h-85.333c-35.328 0-64 28.672-64 64v325.12c0 27.157 5.163 54.037 15.253 79.253l8.917 22.293h-34.837c-17.664 0-32 14.336-32 32s14.336 32 32 32h60.459l53.12 132.885c19.456 48.576 66.496 80.448 118.869 80.448h367.104c52.373 0 99.413-31.872 118.869-80.448l53.12-132.885zM832 256c11.797 0 21.333 9.536 21.333 21.333v175.787c0 6.421-0.448 12.779-1.301 19.051-1.408 10.603-10.581 18.496-21.269 18.496h-637.525c-10.688 0-19.861-7.893-21.269-18.496-0.853-6.272-1.301-12.629-1.301-19.051v-175.787c0-11.797 9.536-21.333 21.333-21.333h640zM853.333 128h-85.333v64h85.333v-64zM256 128h-85.333v64h85.333v-64zM328.448 768c-26.176 0-49.728-15.936-59.435-40.235l-57.536-143.851c-5.611-13.995 4.736-29.248 19.819-29.248h561.408c15.104 0 25.429 15.253 19.819 29.248l-57.536 143.851c-9.728 24.299-33.259 40.235-59.435 40.235h-367.104z" />
<glyph unicode="&#xe955;" glyph-name="card_check" d="M810.675 874.669h-639.998c-70.421 0-128-57.6-128-128v-426.669c0-70.4 57.579-128 128-128h245.333c17.662 0 31.998 14.336 31.998 32s-14.336 32-31.998 32h-245.333c-35.349 0-64 28.651-64 64v256.002h767.998v-32c0-17.666 14.315-32.002 32-32.002 17.664 0 32 14.336 32 32.002v202.667c0 70.4-57.6 128-128 128zM106.677 704.002v42.667c0 35.328 28.651 64 64 64h639.998c35.328 0 64-28.672 64-64v-42.667h-767.998zM234.886 469.333c-23.552 0-42.667-19.115-42.667-42.667v-42.667c0-23.552 19.115-42.667 42.667-42.667h85.333c23.552 0 42.667 19.115 42.667 42.667v42.667c0 23.552-19.115 42.667-42.667 42.667h-85.333zM842.658 341.333c-8.192 0-16.384-3.115-22.635-9.365l-115.729-115.746-30.733 30.729c-6.251 6.251-14.443 9.365-22.635 9.365s-16.384-3.115-22.635-9.365c-12.48-12.501-12.48-32.768 0-45.269l52.305-52.279c0.333-0.371 0.683-0.734 1.037-1.092 4.958-4.958 11.14-7.945 17.587-8.964 1.681-0.269 3.383-0.405 5.082-0.405 8.192 0 16.384 3.136 22.635 9.387 0.235 0.235 0.465 0.469 0.687 0.708l137.69 137.664c12.48 12.48 12.48 32.768 0 45.269-6.251 6.251-14.443 9.365-22.656 9.365zM512.009 256c0 129.6 105.067 234.667 234.667 234.667 129.579 0 234.667-105.067 234.667-234.667s-105.088-234.667-234.667-234.667c-129.6 0-234.667 105.067-234.667 234.667zM917.342 256c0 94.101-76.565 170.667-170.667 170.667s-170.667-76.565-170.667-170.667c0-94.101 76.565-170.667 170.667-170.667s170.667 76.565 170.667 170.667z" />
<glyph unicode="&#xe956;" glyph-name="card_circle_fill" d="M330.187 399.804c0 13.333 10.923 24.256 24.235 24.256h72.723c13.333 0 24.26-10.923 24.26-24.256v-48.469c0-13.333-10.927-24.256-24.26-24.256h-72.723c-13.312 0-24.235 10.923-24.235 24.256v48.469zM512 21.325c-235.648 0-426.667 191.040-426.667 426.667 0 235.65 191.019 426.669 426.667 426.669s426.667-191.019 426.667-426.669c0-235.627-191.019-426.667-426.667-426.667zM705.937 654.057h-387.883c-39.979 0-72.725-32.725-72.725-72.725v-36.352h533.333v36.352c0 40-32.725 72.725-72.725 72.725zM245.323 314.662c0-40 32.768-72.725 72.747-72.725h387.859c40 0 72.73 32.725 72.73 72.725v160.491h-533.335v-160.491z" />
<glyph unicode="&#xe957;" glyph-name="card_circle" d="M341.333 629.333c-35.157 0-64-28.8-64-64v-32h469.333v32c0 35.2-28.8 64-64 64h-341.333zM341.333 266.667c-35.157 0-64 28.8-64 64v160h469.333v-160c0-35.2-28.8-64-64-64h-341.333zM373.333 437.333c-11.733 0-21.333-9.6-21.333-21.333v-42.667c0-11.733 9.6-21.333 21.333-21.333h64c11.733 0 21.333 9.6 21.333 21.333v42.667c0 11.733-9.6 21.333-21.333 21.333h-64zM512 874.667c-235.648 0-426.667-191.019-426.667-426.667s191.019-426.667 426.667-426.667c235.648 0 426.667 191.019 426.667 426.667s-191.019 426.667-426.667 426.667zM512 85.333c-199.979 0-362.667 162.688-362.667 362.667s162.688 362.667 362.667 362.667c199.979 0 362.667-162.688 362.667-362.667s-162.688-362.667-362.667-362.667z" />
<glyph unicode="&#xe958;" glyph-name="card_fill" d="M170.667 810.667h682.667c70.4 0 128-57.6 128-128v-64h-938.667v64c0 70.4 57.643 128 128 128zM170.667 85.333c-70.357 0-128 57.6-128 128v320h938.667v-320c0-70.4-57.6-128-128-128h-682.667zM234.667 426.667c-23.467 0-42.667-19.2-42.667-42.667v-85.333c0-23.467 19.2-42.667 42.667-42.667h128c23.467 0 42.667 19.2 42.667 42.667v85.333c0 23.467-19.2 42.667-42.667 42.667h-128z" />
<glyph unicode="&#xe959;" glyph-name="card_plus" d="M810.667 874.667h-640c-70.4 0-128-57.6-128-128v-426.667c0-70.4 57.6-128 128-128h245.333c17.664 0 32 14.336 32 32s-14.336 32-32 32h-245.333c-35.328 0-64 28.672-64 64v256h768v-32c0-17.664 14.336-32 32-32s32 14.336 32 32v202.667c0 70.4-57.6 128-128 128zM106.667 704v42.667c0 35.349 28.672 64 64 64h640c35.349 0 64-28.651 64-64v-42.667h-768zM234.895 469.333c-23.552 0-42.667-19.115-42.667-42.667v-42.667c0-23.552 19.115-42.667 42.667-42.667h85.333c23.552 0 42.667 19.115 42.667 42.667v42.667c0 23.552-19.115 42.667-42.667 42.667h-85.333zM746.645 128c17.6 0 32 14.4 32 32v63.979h64.021c17.6 0 32 14.4 32 32s-14.4 32-32 32h-64.021v64.021c0 17.6-14.4 32-32 32-17.579 0-32-14.4-32-32v-64.021h-63.979c-17.6 0-32-14.4-32-32s14.4-32 32-32h63.979v-63.979c0-17.6 14.421-32 32-32zM512 256c0 129.6 105.067 234.667 234.667 234.667s234.667-105.067 234.667-234.667c0-129.6-105.067-234.667-234.667-234.667s-234.667 105.067-234.667 234.667zM917.333 256c0 94.101-76.565 170.667-170.667 170.667s-170.667-76.565-170.667-170.667c0-94.101 76.565-170.667 170.667-170.667s170.667 76.565 170.667 170.667z" />
<glyph unicode="&#xe95a;" glyph-name="card_sale" d="M832 874.667h-640c-70.4 0-128-57.6-128-128v-426.667c0-70.4 57.6-128 128-128h266.667c17.664 0 32 14.336 32 32s-14.336 32-32 32h-266.667c-35.328 0-64 28.672-64 64v256h768v-96c0-17.664 14.336-32 32-32s32 14.336 32 32v266.667c0 70.4-57.6 128-128 128zM128 704v42.667c0 35.328 28.672 64 64 64h640c35.328 0 64-28.672 64-64v-42.667h-768zM256.228 469.333c-23.552 0-42.667-19.115-42.667-42.667v-42.667c0-23.552 19.115-42.667 42.667-42.667h85.333c23.552 0 42.667 19.115 42.667 42.667v42.667c0 23.552-19.115 42.667-42.667 42.667h-85.333zM905.365 353.301c6.251 6.251 14.443 9.365 22.635 9.365s16.384-3.115 22.635-9.365c12.48-12.501 12.48-32.768 0-45.269l-277.333-277.333c-6.251-6.251-14.443-9.365-22.635-9.365s-16.384 3.115-22.635 9.365c-12.48 12.501-12.48 32.768 0 45.269l277.333 277.333zM896 149.333c-35.328 0-64-28.672-64-64s28.672-64 64-64c35.328 0 64 28.672 64 64s-28.672 64-64 64zM746.667 298.667c0-35.328-28.672-64-64-64s-64 28.672-64 64c0 35.328 28.672 64 64 64s64-28.672 64-64z" />
<glyph unicode="&#xe95b;" glyph-name="card" d="M234.667 426.667h128c23.467 0 42.667-19.2 42.667-42.667v-85.333c0-23.467-19.2-42.667-42.667-42.667h-128c-23.467 0-42.667 19.2-42.667 42.667v85.333c0 23.467 19.2 42.667 42.667 42.667zM170.667 810.667h682.667c70.4 0 128-57.6 128-128v-469.333c0-70.4-57.6-128-128-128h-682.667c-70.357 0-128 57.6-128 128v469.333c0 70.4 57.643 128 128 128zM170.667 149.333h682.667c35.285 0 64 28.715 64 64v320h-810.667v-320c0-35.285 28.715-64 64-64zM853.333 746.667h-682.667c-35.285 0-64-28.715-64-64v-64h810.667v64c0 35.285-28.715 64-64 64z" />
<glyph unicode="&#xe95c;" glyph-name="caret_down" d="M725.333 544c0 17.685-14.336 32-32 32h-362.667c-17.685 0-32-14.315-32-32 0-8.875 3.627-16.896 9.472-22.699l178.816-188.992c5.867-7.424 14.827-12.309 25.045-12.309s19.179 4.885 25.045 12.309l178.837 188.992c5.824 5.803 9.451 13.824 9.451 22.699z" />
<glyph unicode="&#xe95d;" glyph-name="caret_left" d="M608.004 234.662c17.664 0 32 14.336 32 32v362.668c0 17.685-14.336 32-32 32-8.896 0-16.917-3.627-22.699-9.451l-188.992-178.818c-7.445-5.888-12.309-14.848-12.309-25.067s4.864-19.179 12.309-25.045l188.992-178.816c5.781-5.845 13.803-9.472 22.699-9.472z" />
<glyph unicode="&#xe95e;" glyph-name="caret_right" d="M415.998 661.331c-17.664 0-32-14.315-32-32v-362.668c0-17.664 14.336-32 32-32 8.896 0 16.919 3.627 22.701 9.472l188.992 178.816c7.424 5.867 12.309 14.827 12.309 25.045s-4.885 19.179-12.309 25.067l-188.992 178.818c-5.781 5.824-13.805 9.451-22.701 9.451z" />
<glyph unicode="&#xe95f;" glyph-name="caret_sort_down" d="M725.333 288c0 17.664-14.315 32-32 32h-362.667c-17.664 0-32-14.336-32-32 0-8.875 3.627-16.917 9.472-22.699l178.816-188.992c5.867-7.424 14.827-12.309 25.045-12.309s19.179 4.885 25.067 12.309l178.816 188.992c5.824 5.781 9.451 13.824 9.451 22.699z" />
<glyph unicode="&#xe960;" glyph-name="caret_sort_up" d="M298.667 608c0-17.664 14.336-32 32-32h362.667c17.664 0 32 14.336 32 32 0 8.875-3.627 16.917-9.451 22.699l-178.837 188.992c-5.867 7.424-14.827 12.309-25.045 12.309s-19.179-4.885-25.045-12.309l-178.837-188.992c-5.824-5.781-9.451-13.824-9.451-22.699z" />
<glyph unicode="&#xe961;" glyph-name="caret_sort" d="M330.667 576c-17.664 0-32 14.336-32 32 0 8.875 3.627 16.917 9.451 22.699l178.837 188.992c5.867 7.424 14.827 12.309 25.045 12.309s19.179-4.885 25.045-12.309l178.837-188.992c5.824-5.781 9.451-13.824 9.451-22.699 0-17.664-14.336-32-32-32h-362.667zM693.333 320c17.664 0 32-14.336 32-32 0-8.875-3.627-16.917-9.451-22.699l-178.837-188.992c-5.867-7.424-14.827-12.309-25.045-12.309s-19.179 4.885-25.045 12.309l-178.837 188.992c-5.824 5.781-9.451 13.824-9.451 22.699 0 17.664 14.336 32 32 32h362.667z" />
<glyph unicode="&#xe962;" glyph-name="caret_up" d="M719.083 356.433l-191.979 191.978c-8.341 8.341-21.824 8.341-30.165 0l-191.98-191.978c-13.44-13.44-3.925-36.416 15.083-36.416h383.958c19.008 0 28.523 22.976 15.083 36.416z" />
<glyph unicode="&#xe963;" glyph-name="carousel_horizontal" d="M661.333 789.333h-298.667c-47.125 0-85.333-38.208-85.333-85.333v-512c0-47.125 38.208-85.333 85.333-85.333h298.667c47.125 0 85.333 38.208 85.333 85.333v512c0 47.125-38.208 85.333-85.333 85.333zM682.667 192c0-11.776-9.557-21.333-21.333-21.333h-298.667c-11.776 0-21.333 9.557-21.333 21.333v512c0 11.776 9.557 21.333 21.333 21.333h298.667c11.776 0 21.333-9.557 21.333-21.333v-512zM128 704h-53.333c-17.664 0-32-14.336-32-32s14.336-32 32-32h53.333c11.797 0 21.333-9.536 21.333-21.333v-341.333c0-11.797-9.536-21.333-21.333-21.333h-53.333c-17.664 0-32-14.336-32-32s14.336-32 32-32h53.333c47.125 0 85.333 38.208 85.333 85.333v341.333c0 47.125-38.208 85.333-85.333 85.333zM896 256h53.333c17.664 0 32-14.336 32-32s-14.336-32-32-32h-53.333c-47.125 0-85.333 38.208-85.333 85.333v341.333c0 47.125 38.208 85.333 85.333 85.333h53.333c17.664 0 32-14.336 32-32s-14.336-32-32-32h-53.333c-11.797 0-21.333-9.536-21.333-21.333v-341.333c0-11.797 9.536-21.333 21.333-21.333z" />
<glyph unicode="&#xe964;" glyph-name="carousel_vertical" d="M704 832v53.333c0 17.664 14.336 32 32 32s32-14.336 32-32v-53.333c0-47.125-38.208-85.333-85.333-85.333h-341.333c-47.125 0-85.333 38.208-85.333 85.333v53.333c0 17.664 14.336 32 32 32s32-14.336 32-32v-53.333c0-11.797 9.536-21.333 21.333-21.333h341.333c11.797 0 21.333 9.536 21.333 21.333zM170.667 597.333v-298.667c0-47.125 38.208-85.333 85.333-85.333h512c47.125 0 85.333 38.208 85.333 85.333v298.667c0 47.125-38.208 85.333-85.333 85.333h-512c-47.125 0-85.333-38.208-85.333-85.333zM768 618.667c11.776 0 21.333-9.557 21.333-21.333v-298.667c0-11.776-9.557-21.333-21.333-21.333h-512c-11.776 0-21.333 9.557-21.333 21.333v298.667c0 11.776 9.557 21.333 21.333 21.333h512zM256 64v-53.333c0-17.664 14.336-32 32-32s32 14.336 32 32v53.333c0 11.797 9.536 21.333 21.333 21.333h341.333c11.797 0 21.333-9.536 21.333-21.333v-53.333c0-17.664 14.336-32 32-32s32 14.336 32 32v53.333c0 47.125-38.208 85.333-85.333 85.333h-341.333c-47.125 0-85.333-38.208-85.333-85.333z" />
<glyph unicode="&#xe965;" glyph-name="cart_down" d="M274.251 277.824c4.843-25.003 26.88-43.157 52.352-43.157h473.388c17.685 0 32-14.336 32-32s-14.315-32-32-32h-473.388c-56.064 0-104.469 39.915-115.179 94.933l-104.619 536.427c-0.981 5.013-5.376 8.64-10.496 8.64h-64.32c-17.664 0-32 14.336-32 32s14.336 32 32 32h64.342c35.669 0 66.496-25.408 73.301-60.416l17.341-88.917h79.691c17.664 0 32-14.336 32-32s-14.336-32-32-32h-67.209l49.927-256h557.913c10.219 0 18.987 7.232 20.949 17.28l46.4 238.72h-74.645c-17.664 0-32 14.336-32 32s14.336 32 32 32h74.645c40.256 0 70.507-36.715 62.827-76.203l-46.4-238.741c-7.808-40.107-42.923-69.056-83.776-69.056h-545.431l12.386-63.509zM501.333 778.667c0 17.664 14.336 32 32 32s32-14.336 32-32v-200.064l62.699 62.741c6.251 6.229 14.443 9.365 22.635 9.365s16.384-3.136 22.635-9.365c12.48-12.501 12.48-32.768 0-45.269l-117.333-117.376c-6.251-6.251-14.443-9.365-22.635-9.365s-16.384 3.115-22.635 9.365l-117.335 117.333c-12.48 12.501-12.48 32.768 0 45.269 6.251 6.251 14.443 9.365 22.635 9.365s16.386-3.115 22.636-9.365l62.699-62.72v200.085zM319.998-21.333c35.349 0 64 28.651 64 64s-28.651 64-64 64c-35.349 0-64-28.651-64-64s28.651-64 64-64zM810.667 42.667c0-35.349-28.651-64-64-64s-64 28.651-64 64c0 35.349 28.651 64 64 64s64-28.651 64-64z" />
<glyph unicode="&#xe966;" glyph-name="cart_fill" d="M186.987 725.333h687.659c40.256 0 70.507-36.715 62.805-76.203l-46.379-238.763c-7.808-40.085-42.923-69.035-83.776-69.035h-545.451l12.395-63.509c4.864-25.003 26.88-43.157 52.373-43.157h473.387c17.664 0 32-14.336 32-32s-14.336-32-32-32h-473.387c-56.064 0-104.491 39.915-115.2 94.933l-104.597 536.427c-0.981 5.013-5.376 8.64-10.496 8.64h-64.32c-17.664 0-32 14.336-32 32s14.336 32 32 32h64.341c35.648 0 66.496-25.408 73.28-60.416l17.365-88.917zM320 106.667c-35.328 0-64-28.672-64-64s28.672-64 64-64c35.328 0 64 28.672 64 64s-28.672 64-64 64zM746.667 106.667c-35.328 0-64-28.672-64-64s28.672-64 64-64c35.328 0 64 28.672 64 64s-28.672 64-64 64z" />
</font>
</defs>
</svg>
